<svg width="364" height="99" viewBox="0 0 364 99" fill="none" xmlns="http://www.w3.org/2000/svg">
<rect width="80" height="99" rx="25" fill="#E39958"/>
<mask id="path-2-outside-1_122_2" maskUnits="userSpaceOnUse" x="21" y="35" width="39" height="25" fill="black">
<rect fill="white" x="21" y="35" width="39" height="25"/>
<path d="M34.656 59L26.048 49.048V59H22.4V36.76H26.048V46.904L34.688 36.76H39.264L29.6 47.896L39.424 59H34.656ZM58.202 43.384C58.202 44.5147 57.9353 45.5813 57.402 46.584C56.8687 47.5867 56.0153 48.408 54.842 49.048C53.6687 49.6667 52.1647 49.976 50.33 49.976H46.298V59H42.65V36.76H50.33C52.0367 36.76 53.4767 37.0587 54.65 37.656C55.8447 38.232 56.73 39.0213 57.306 40.024C57.9033 41.0267 58.202 42.1467 58.202 43.384ZM50.33 47C51.7167 47 52.7513 46.6907 53.434 46.072C54.1167 45.432 54.458 44.536 54.458 43.384C54.458 40.952 53.082 39.736 50.33 39.736H46.298V47H50.33Z"/>
</mask>
<path d="M34.656 59L26.048 49.048V59H22.4V36.76H26.048V46.904L34.688 36.76H39.264L29.6 47.896L39.424 59H34.656ZM58.202 43.384C58.202 44.5147 57.9353 45.5813 57.402 46.584C56.8687 47.5867 56.0153 48.408 54.842 49.048C53.6687 49.6667 52.1647 49.976 50.33 49.976H46.298V59H42.65V36.76H50.33C52.0367 36.76 53.4767 37.0587 54.65 37.656C55.8447 38.232 56.73 39.0213 57.306 40.024C57.9033 41.0267 58.202 42.1467 58.202 43.384ZM50.33 47C51.7167 47 52.7513 46.6907 53.434 46.072C54.1167 45.432 54.458 44.536 54.458 43.384C54.458 40.952 53.082 39.736 50.33 39.736H46.298V47H50.33Z" fill="#0A0000"/>
<path d="M34.656 59L33.8997 59.6542L34.1988 60H34.656V59ZM26.048 49.048L26.8043 48.3938L25.048 46.3633V49.048H26.048ZM26.048 59V60H27.048V59H26.048ZM22.4 59H21.4V60H22.4V59ZM22.4 36.76V35.76H21.4V36.76H22.4ZM26.048 36.76H27.048V35.76H26.048V36.76ZM26.048 46.904H25.048V49.6203L26.8093 47.5524L26.048 46.904ZM34.688 36.76V35.76H34.2262L33.9267 36.1116L34.688 36.76ZM39.264 36.76L40.0193 37.4154L41.4559 35.76H39.264V36.76ZM29.6 47.896L28.8447 47.2406L28.2704 47.9024L28.851 48.5586L29.6 47.896ZM39.424 59V60H41.6439L40.173 58.3374L39.424 59ZM35.4123 58.3458L26.8043 48.3938L25.2917 49.7022L33.8997 59.6542L35.4123 58.3458ZM25.048 49.048V59H27.048V49.048H25.048ZM26.048 58H22.4V60H26.048V58ZM23.4 59V36.76H21.4V59H23.4ZM22.4 37.76H26.048V35.76H22.4V37.76ZM25.048 36.76V46.904H27.048V36.76H25.048ZM26.8093 47.5524L35.4493 37.4084L33.9267 36.1116L25.2867 46.2556L26.8093 47.5524ZM34.688 37.76H39.264V35.76H34.688V37.76ZM38.5087 36.1046L28.8447 47.2406L30.3553 48.5514L40.0193 37.4154L38.5087 36.1046ZM28.851 48.5586L38.675 59.6626L40.173 58.3374L30.349 47.2334L28.851 48.5586ZM39.424 58H34.656V60H39.424V58ZM57.402 46.584L56.5191 46.1144L56.5191 46.1144L57.402 46.584ZM54.842 49.048L55.3085 49.9327L55.3209 49.9259L54.842 49.048ZM46.298 49.976V48.976H45.298V49.976H46.298ZM46.298 59V60H47.298V59H46.298ZM42.65 59H41.65V60H42.65V59ZM42.65 36.76V35.76H41.65V36.76H42.65ZM54.65 37.656L54.1963 38.5472L54.206 38.5521L54.2157 38.5568L54.65 37.656ZM57.306 40.024L56.4389 40.5221L56.4428 40.529L56.4469 40.5358L57.306 40.024ZM53.434 46.072L54.1055 46.813L54.1118 46.8073L54.1179 46.8015L53.434 46.072ZM46.298 39.736V38.736H45.298V39.736H46.298ZM46.298 47H45.298V48H46.298V47ZM57.202 43.384C57.202 44.3501 56.9759 45.2556 56.5191 46.1144L58.2849 47.0536C58.8948 45.907 59.202 44.6792 59.202 43.384H57.202ZM56.5191 46.1144C56.0929 46.9157 55.3957 47.6069 54.3631 48.1701L55.3209 49.9259C56.6349 49.2091 57.6444 48.2577 58.2849 47.0536L56.5191 46.1144ZM54.3756 48.1634C53.3905 48.6829 52.0611 48.976 50.33 48.976V50.976C52.2682 50.976 53.9469 50.6505 55.3084 49.9326L54.3756 48.1634ZM50.33 48.976H46.298V50.976H50.33V48.976ZM45.298 49.976V59H47.298V49.976H45.298ZM46.298 58H42.65V60H46.298V58ZM43.65 59V36.76H41.65V59H43.65ZM42.65 37.76H50.33V35.76H42.65V37.76ZM50.33 37.76C51.9241 37.76 53.1989 38.0394 54.1963 38.5472L55.1037 36.7648C53.7545 36.078 52.1492 35.76 50.33 35.76V37.76ZM54.2157 38.5568C55.2564 39.0585 55.9775 39.719 56.4389 40.5221L58.1731 39.5259C57.4825 38.3237 56.433 37.4055 55.0843 36.7552L54.2157 38.5568ZM56.4469 40.5358C56.9464 41.3743 57.202 42.3156 57.202 43.384H59.202C59.202 41.9778 58.8603 40.6791 58.1651 39.5122L56.4469 40.5358ZM50.33 48C51.8429 48 53.1651 47.6653 54.1055 46.813L52.7625 45.331C52.3376 45.7161 51.5904 46 50.33 46V48ZM54.1179 46.8015C55.0473 45.9302 55.458 44.7439 55.458 43.384H53.458C53.458 44.3281 53.186 44.9338 52.7501 45.3425L54.1179 46.8015ZM55.458 43.384C55.458 41.9796 55.055 40.7531 54.0882 39.8987C53.145 39.0651 51.8318 38.736 50.33 38.736V40.736C51.5802 40.736 52.331 41.0149 52.7638 41.3973C53.173 41.7589 53.458 42.3564 53.458 43.384H55.458ZM50.33 38.736H46.298V40.736H50.33V38.736ZM45.298 39.736V47H47.298V39.736H45.298ZM46.298 48H50.33V46H46.298V48Z" fill="black" mask="url(#path-2-outside-1_122_2)"/>
<path d="M34.656 59L33.8997 59.6542L34.1988 60H34.656V59ZM26.048 49.048L26.8043 48.3938L25.048 46.3633V49.048H26.048ZM26.048 59V60H27.048V59H26.048ZM22.4 59H21.4V60H22.4V59ZM22.4 36.76V35.76H21.4V36.76H22.4ZM26.048 36.76H27.048V35.76H26.048V36.76ZM26.048 46.904H25.048V49.6203L26.8093 47.5524L26.048 46.904ZM34.688 36.76V35.76H34.2262L33.9267 36.1116L34.688 36.76ZM39.264 36.76L40.0193 37.4154L41.4559 35.76H39.264V36.76ZM29.6 47.896L28.8447 47.2406L28.2704 47.9024L28.851 48.5586L29.6 47.896ZM39.424 59V60H41.6439L40.173 58.3374L39.424 59ZM35.4123 58.3458L26.8043 48.3938L25.2917 49.7022L33.8997 59.6542L35.4123 58.3458ZM25.048 49.048V59H27.048V49.048H25.048ZM26.048 58H22.4V60H26.048V58ZM23.4 59V36.76H21.4V59H23.4ZM22.4 37.76H26.048V35.76H22.4V37.76ZM25.048 36.76V46.904H27.048V36.76H25.048ZM26.8093 47.5524L35.4493 37.4084L33.9267 36.1116L25.2867 46.2556L26.8093 47.5524ZM34.688 37.76H39.264V35.76H34.688V37.76ZM38.5087 36.1046L28.8447 47.2406L30.3553 48.5514L40.0193 37.4154L38.5087 36.1046ZM28.851 48.5586L38.675 59.6626L40.173 58.3374L30.349 47.2334L28.851 48.5586ZM39.424 58H34.656V60H39.424V58ZM57.402 46.584L56.5191 46.1144L56.5191 46.1144L57.402 46.584ZM54.842 49.048L55.3085 49.9327L55.3209 49.9259L54.842 49.048ZM46.298 49.976V48.976H45.298V49.976H46.298ZM46.298 59V60H47.298V59H46.298ZM42.65 59H41.65V60H42.65V59ZM42.65 36.76V35.76H41.65V36.76H42.65ZM54.65 37.656L54.1963 38.5472L54.206 38.5521L54.2157 38.5568L54.65 37.656ZM57.306 40.024L56.4389 40.5221L56.4428 40.529L56.4469 40.5358L57.306 40.024ZM53.434 46.072L54.1055 46.813L54.1118 46.8073L54.1179 46.8015L53.434 46.072ZM46.298 39.736V38.736H45.298V39.736H46.298ZM46.298 47H45.298V48H46.298V47ZM57.202 43.384C57.202 44.3501 56.9759 45.2556 56.5191 46.1144L58.2849 47.0536C58.8948 45.907 59.202 44.6792 59.202 43.384H57.202ZM56.5191 46.1144C56.0929 46.9157 55.3957 47.6069 54.3631 48.1701L55.3209 49.9259C56.6349 49.2091 57.6444 48.2577 58.2849 47.0536L56.5191 46.1144ZM54.3756 48.1634C53.3905 48.6829 52.0611 48.976 50.33 48.976V50.976C52.2682 50.976 53.9469 50.6505 55.3084 49.9326L54.3756 48.1634ZM50.33 48.976H46.298V50.976H50.33V48.976ZM45.298 49.976V59H47.298V49.976H45.298ZM46.298 58H42.65V60H46.298V58ZM43.65 59V36.76H41.65V59H43.65ZM42.65 37.76H50.33V35.76H42.65V37.76ZM50.33 37.76C51.9241 37.76 53.1989 38.0394 54.1963 38.5472L55.1037 36.7648C53.7545 36.078 52.1492 35.76 50.33 35.76V37.76ZM54.2157 38.5568C55.2564 39.0585 55.9775 39.719 56.4389 40.5221L58.1731 39.5259C57.4825 38.3237 56.433 37.4055 55.0843 36.7552L54.2157 38.5568ZM56.4469 40.5358C56.9464 41.3743 57.202 42.3156 57.202 43.384H59.202C59.202 41.9778 58.8603 40.6791 58.1651 39.5122L56.4469 40.5358ZM50.33 48C51.8429 48 53.1651 47.6653 54.1055 46.813L52.7625 45.331C52.3376 45.7161 51.5904 46 50.33 46V48ZM54.1179 46.8015C55.0473 45.9302 55.458 44.7439 55.458 43.384H53.458C53.458 44.3281 53.186 44.9338 52.7501 45.3425L54.1179 46.8015ZM55.458 43.384C55.458 41.9796 55.055 40.7531 54.0882 39.8987C53.145 39.0651 51.8318 38.736 50.33 38.736V40.736C51.5802 40.736 52.331 41.0149 52.7638 41.3973C53.173 41.7589 53.458 42.3564 53.458 43.384H55.458ZM50.33 38.736H46.298V40.736H50.33V38.736ZM45.298 39.736V47H47.298V39.736H45.298ZM46.298 48H50.33V46H46.298V48Z" fill="black" fill-opacity="0.2" mask="url(#path-2-outside-1_122_2)"/>
</svg>
