<svg width="305" height="122" viewBox="0 0 305 122" fill="none" xmlns="http://www.w3.org/2000/svg">
<rect width="305" height="122" rx="25" fill="#E39958"/>
<path d="M58.884 76L50.388 64.84V76H44.232V50.728H50.388V61.816L58.812 50.728H66.048L56.256 63.112L66.408 76H58.884ZM72.4296 53.824C71.3496 53.824 70.4616 53.512 69.7656 52.888C69.0936 52.24 68.7576 51.448 68.7576 50.512C68.7576 49.552 69.0936 48.76 69.7656 48.136C70.4616 47.488 71.3496 47.164 72.4296 47.164C73.4856 47.164 74.3496 47.488 75.0216 48.136C75.7176 48.76 76.0656 49.552 76.0656 50.512C76.0656 51.448 75.7176 52.24 75.0216 52.888C74.3496 53.512 73.4856 53.824 72.4296 53.824ZM75.4896 55.912V76H69.3336V55.912H75.4896ZM89.0948 76.288C87.1268 76.288 85.3508 75.868 83.7668 75.028C82.2068 74.188 80.9708 72.988 80.0588 71.428C79.1708 69.868 78.7268 68.044 78.7268 65.956C78.7268 63.892 79.1828 62.08 80.0947 60.52C81.0068 58.936 82.2548 57.724 83.8388 56.884C85.4228 56.044 87.1988 55.624 89.1668 55.624C91.1348 55.624 92.9108 56.044 94.4948 56.884C96.0788 57.724 97.3268 58.936 98.2388 60.52C99.1508 62.08 99.6068 63.892 99.6068 65.956C99.6068 68.02 99.1388 69.844 98.2028 71.428C97.2908 72.988 96.0308 74.188 94.4228 75.028C92.8388 75.868 91.0628 76.288 89.0948 76.288ZM89.0948 70.96C90.2708 70.96 91.2668 70.528 92.0828 69.664C92.9228 68.8 93.3428 67.564 93.3428 65.956C93.3428 64.348 92.9348 63.112 92.1188 62.248C91.3268 61.384 90.3428 60.952 89.1668 60.952C87.9668 60.952 86.9708 61.384 86.1788 62.248C85.3868 63.088 84.9908 64.324 84.9908 65.956C84.9908 67.564 85.3748 68.8 86.1428 69.664C86.9348 70.528 87.9188 70.96 89.0948 70.96ZM111.045 76.288C109.293 76.288 107.733 75.988 106.365 75.388C104.997 74.788 103.917 73.972 103.125 72.94C102.333 71.884 101.889 70.708 101.793 69.412H107.877C107.949 70.108 108.273 70.672 108.849 71.104C109.425 71.536 110.133 71.752 110.973 71.752C111.741 71.752 112.329 71.608 112.737 71.32C113.169 71.008 113.385 70.612 113.385 70.132C113.385 69.556 113.085 69.136 112.485 68.872C111.885 68.584 110.913 68.272 109.569 67.936C108.129 67.6 106.929 67.252 105.969 66.892C105.009 66.508 104.181 65.92 103.485 65.128C102.789 64.312 102.441 63.22 102.441 61.852C102.441 60.7 102.753 59.656 103.377 58.72C104.025 57.76 104.961 57.004 106.185 56.452C107.433 55.9 108.909 55.624 110.613 55.624C113.133 55.624 115.113 56.248 116.553 57.496C118.017 58.744 118.857 60.4 119.073 62.464H113.385C113.289 61.768 112.977 61.216 112.449 60.808C111.945 60.4 111.273 60.196 110.433 60.196C109.713 60.196 109.161 60.34 108.777 60.628C108.393 60.892 108.201 61.264 108.201 61.744C108.201 62.32 108.501 62.752 109.101 63.04C109.725 63.328 110.685 63.616 111.981 63.904C113.469 64.288 114.681 64.672 115.617 65.056C116.553 65.416 117.369 66.016 118.065 66.856C118.785 67.672 119.157 68.776 119.181 70.168C119.181 71.344 118.845 72.4 118.173 73.336C117.525 74.248 116.577 74.968 115.329 75.496C114.105 76.024 112.677 76.288 111.045 76.288ZM135.223 76L129.103 67.576V76H122.947V49.36H129.103V64.084L135.187 55.912H142.783L134.431 65.992L142.855 76H135.223ZM172.09 58.864C172.09 60.328 171.754 61.672 171.082 62.896C170.41 64.096 169.378 65.068 167.986 65.812C166.594 66.556 164.866 66.928 162.802 66.928H158.986V76H152.83V50.728H162.802C164.818 50.728 166.522 51.076 167.914 51.772C169.306 52.468 170.35 53.428 171.046 54.652C171.742 55.876 172.09 57.28 172.09 58.864ZM162.334 62.032C163.51 62.032 164.386 61.756 164.962 61.204C165.538 60.652 165.826 59.872 165.826 58.864C165.826 57.856 165.538 57.076 164.962 56.524C164.386 55.972 163.51 55.696 162.334 55.696H158.986V62.032H162.334ZM184.439 76.288C182.471 76.288 180.695 75.868 179.111 75.028C177.551 74.188 176.315 72.988 175.403 71.428C174.515 69.868 174.071 68.044 174.071 65.956C174.071 63.892 174.527 62.08 175.438 60.52C176.351 58.936 177.599 57.724 179.183 56.884C180.767 56.044 182.543 55.624 184.511 55.624C186.479 55.624 188.255 56.044 189.839 56.884C191.423 57.724 192.671 58.936 193.583 60.52C194.495 62.08 194.951 63.892 194.951 65.956C194.951 68.02 194.483 69.844 193.547 71.428C192.635 72.988 191.375 74.188 189.767 75.028C188.183 75.868 186.407 76.288 184.439 76.288ZM184.439 70.96C185.615 70.96 186.611 70.528 187.427 69.664C188.267 68.8 188.687 67.564 188.687 65.956C188.687 64.348 188.279 63.112 187.463 62.248C186.671 61.384 185.687 60.952 184.511 60.952C183.311 60.952 182.315 61.384 181.523 62.248C180.731 63.088 180.335 64.324 180.335 65.956C180.335 67.564 180.719 68.8 181.487 69.664C182.279 70.528 183.263 70.96 184.439 70.96ZM204.372 59.26C205.092 58.156 205.992 57.292 207.072 56.668C208.152 56.02 209.352 55.696 210.672 55.696V62.212H208.98C207.444 62.212 206.292 62.548 205.524 63.22C204.756 63.868 204.372 65.02 204.372 66.676V76H198.216V55.912H204.372V59.26ZM224.811 70.78V76H221.679C219.447 76 217.707 75.46 216.459 74.38C215.211 73.276 214.587 71.488 214.587 69.016V61.024H212.139V55.912H214.587V51.016H220.743V55.912H224.775V61.024H220.743V69.088C220.743 69.688 220.887 70.12 221.175 70.384C221.463 70.648 221.943 70.78 222.615 70.78H224.811ZM227.016 65.92C227.016 63.856 227.4 62.044 228.168 60.484C228.96 58.924 230.028 57.724 231.372 56.884C232.716 56.044 234.216 55.624 235.872 55.624C237.288 55.624 238.524 55.912 239.58 56.488C240.66 57.064 241.488 57.82 242.064 58.756V55.912H248.22V76H242.064V73.156C241.464 74.092 240.624 74.848 239.544 75.424C238.488 76 237.252 76.288 235.836 76.288C234.204 76.288 232.716 75.868 231.372 75.028C230.028 74.164 228.96 72.952 228.168 71.392C227.4 69.808 227.016 67.984 227.016 65.92ZM242.064 65.956C242.064 64.42 241.632 63.208 240.768 62.32C239.928 61.432 238.896 60.988 237.672 60.988C236.448 60.988 235.404 61.432 234.54 62.32C233.7 63.184 233.28 64.384 233.28 65.92C233.28 67.456 233.7 68.68 234.54 69.592C235.404 70.48 236.448 70.924 237.672 70.924C238.896 70.924 239.928 70.48 240.768 69.592C241.632 68.704 242.064 67.492 242.064 65.956ZM258.829 49.36V76H252.673V49.36H258.829Z" fill="#0A0000"/>
</svg>
