<svg width="365" height="111" viewBox="0 0 365 111" fill="none" xmlns="http://www.w3.org/2000/svg">
<rect width="237.556" height="111" rx="25" fill="#E39958"/>
<mask id="path-2-outside-1_32_4" maskUnits="userSpaceOnUse" x="22.4106" y="38.97" width="184" height="28" fill="black">
<rect fill="white" x="22.4106" y="38.97" width="184" height="28"/>
<path d="M36.0666 64.97L27.4586 55.018V64.97H23.8106V42.73H27.4586V52.874L36.0986 42.73H40.6746L31.0106 53.866L40.8346 64.97H36.0666ZM45.9166 45.002C45.2553 45.002 44.7006 44.778 44.2526 44.33C43.8046 43.882 43.5806 43.3273 43.5806 42.666C43.5806 42.0046 43.8046 41.45 44.2526 41.002C44.7006 40.554 45.2553 40.33 45.9166 40.33C46.5566 40.33 47.1006 40.554 47.5486 41.002C47.9966 41.45 48.2206 42.0046 48.2206 42.666C48.2206 43.3273 47.9966 43.882 47.5486 44.33C47.1006 44.778 46.5566 45.002 45.9166 45.002ZM47.7086 47.338V64.97H44.0606V47.338H47.7086ZM60.1461 65.258C58.4821 65.258 56.9781 64.8846 55.6341 64.138C54.2901 63.37 53.2341 62.3033 52.4661 60.938C51.6981 59.5513 51.3141 57.9513 51.3141 56.138C51.3141 54.346 51.7088 52.7566 52.4981 51.37C53.2875 49.9833 54.3648 48.9166 55.7301 48.17C57.0955 47.4233 58.6208 47.05 60.3061 47.05C61.9915 47.05 63.5168 47.4233 64.8821 48.17C66.2475 48.9166 67.3248 49.9833 68.1141 51.37C68.9035 52.7566 69.2981 54.346 69.2981 56.138C69.2981 57.93 68.8928 59.5193 68.0821 60.906C67.2715 62.2926 66.1621 63.37 64.7541 64.138C63.3675 64.8846 61.8315 65.258 60.1461 65.258ZM60.1461 62.09C61.0848 62.09 61.9595 61.866 62.7701 61.418C63.6021 60.97 64.2741 60.298 64.7861 59.402C65.2981 58.506 65.5541 57.418 65.5541 56.138C65.5541 54.858 65.3088 53.7806 64.8181 52.906C64.3275 52.01 63.6768 51.338 62.8661 50.89C62.0555 50.442 61.1808 50.218 60.2421 50.218C59.3035 50.218 58.4288 50.442 57.6181 50.89C56.8288 51.338 56.1995 52.01 55.7301 52.906C55.2608 53.7806 55.0261 54.858 55.0261 56.138C55.0261 58.0366 55.5061 59.5086 56.4661 60.554C57.4475 61.578 58.6741 62.09 60.1461 62.09ZM79.3044 65.258C77.9177 65.258 76.6697 65.0126 75.5604 64.522C74.4724 64.01 73.6084 63.3273 72.9684 62.474C72.3284 61.5993 71.9871 60.6286 71.9444 59.562H75.7204C75.7844 60.3086 76.1364 60.938 76.7764 61.45C77.4377 61.9406 78.2591 62.186 79.2404 62.186C80.2644 62.186 81.0537 61.994 81.6084 61.61C82.1844 61.2046 82.4724 60.6926 82.4724 60.074C82.4724 59.4126 82.1524 58.922 81.5124 58.602C80.8937 58.282 79.9017 57.93 78.5364 57.546C77.2137 57.1833 76.1364 56.8313 75.3044 56.49C74.4724 56.1486 73.7471 55.626 73.1284 54.922C72.5311 54.218 72.2324 53.29 72.2324 52.138C72.2324 51.1993 72.5097 50.346 73.0644 49.578C73.6191 48.7886 74.4084 48.17 75.4324 47.722C76.4777 47.274 77.6724 47.05 79.0164 47.05C81.0217 47.05 82.6324 47.562 83.8484 48.586C85.0857 49.5886 85.7471 50.9646 85.8324 52.714H82.1844C82.1204 51.9246 81.8004 51.2953 81.2244 50.826C80.6484 50.3566 79.8697 50.122 78.8884 50.122C77.9284 50.122 77.1924 50.3033 76.6804 50.666C76.1684 51.0286 75.9124 51.5086 75.9124 52.106C75.9124 52.5753 76.0831 52.97 76.4244 53.29C76.7657 53.61 77.1817 53.866 77.6724 54.058C78.1631 54.2286 78.8884 54.4526 79.8484 54.73C81.1284 55.0713 82.1737 55.4233 82.9844 55.786C83.8164 56.1273 84.5311 56.6393 85.1284 57.322C85.7257 58.0046 86.0351 58.9113 86.0564 60.042C86.0564 61.0446 85.7791 61.9406 85.2244 62.73C84.6697 63.5193 83.8804 64.138 82.8564 64.586C81.8537 65.034 80.6697 65.258 79.3044 65.258ZM96.9741 56.17L105.102 64.97H100.174L93.6461 57.386V64.97H89.9981V41.29H93.6461V55.05L100.046 47.338H105.102L96.9741 56.17ZM131.581 49.354C131.581 50.4846 131.315 51.5513 130.781 52.554C130.248 53.5566 129.395 54.378 128.221 55.018C127.048 55.6366 125.544 55.946 123.709 55.946H119.677V64.97H116.029V42.73H123.709C125.416 42.73 126.856 43.0286 128.029 43.626C129.224 44.202 130.109 44.9913 130.685 45.994C131.283 46.9966 131.581 48.1166 131.581 49.354ZM123.709 52.97C125.096 52.97 126.131 52.6606 126.813 52.042C127.496 51.402 127.837 50.506 127.837 49.354C127.837 46.922 126.461 45.706 123.709 45.706H119.677V52.97H123.709ZM142.709 65.258C141.045 65.258 139.541 64.8846 138.197 64.138C136.853 63.37 135.797 62.3033 135.029 60.938C134.261 59.5513 133.877 57.9513 133.877 56.138C133.877 54.346 134.271 52.7566 135.061 51.37C135.85 49.9833 136.927 48.9166 138.293 48.17C139.658 47.4233 141.183 47.05 142.869 47.05C144.554 47.05 146.079 47.4233 147.445 48.17C148.81 48.9166 149.887 49.9833 150.677 51.37C151.466 52.7566 151.861 54.346 151.861 56.138C151.861 57.93 151.455 59.5193 150.645 60.906C149.834 62.2926 148.725 63.37 147.317 64.138C145.93 64.8846 144.394 65.258 142.709 65.258ZM142.709 62.09C143.647 62.09 144.522 61.866 145.333 61.418C146.165 60.97 146.837 60.298 147.349 59.402C147.861 58.506 148.117 57.418 148.117 56.138C148.117 54.858 147.871 53.7806 147.381 52.906C146.89 52.01 146.239 51.338 145.429 50.89C144.618 50.442 143.743 50.218 142.805 50.218C141.866 50.218 140.991 50.442 140.181 50.89C139.391 51.338 138.762 52.01 138.293 52.906C137.823 53.7806 137.589 54.858 137.589 56.138C137.589 58.0366 138.069 59.5086 139.029 60.554C140.01 61.578 141.237 62.09 142.709 62.09ZM159.115 49.898C159.648 49.002 160.352 48.3086 161.227 47.818C162.123 47.306 163.179 47.05 164.395 47.05V50.826H163.467C162.038 50.826 160.95 51.1886 160.203 51.914C159.478 52.6393 159.115 53.898 159.115 55.69V64.97H155.467V47.338H159.115V49.898ZM172.004 50.314V60.074C172.004 60.7353 172.153 61.2153 172.452 61.514C172.772 61.7913 173.305 61.93 174.052 61.93H176.292V64.97H173.412C171.769 64.97 170.511 64.586 169.636 63.818C168.761 63.05 168.324 61.802 168.324 60.074V50.314H166.244V47.338H168.324V42.954H172.004V47.338H176.292V50.314H172.004ZM178.438 56.074C178.438 54.3033 178.801 52.7353 179.526 51.37C180.273 50.0046 181.276 48.9486 182.534 48.202C183.814 47.434 185.222 47.05 186.758 47.05C188.145 47.05 189.35 47.3273 190.374 47.882C191.42 48.4153 192.252 49.0873 192.87 49.898V47.338H196.55V64.97H192.87V62.346C192.252 63.178 191.409 63.8713 190.342 64.426C189.276 64.9806 188.06 65.258 186.694 65.258C185.18 65.258 183.793 64.874 182.534 64.106C181.276 63.3166 180.273 62.2286 179.526 60.842C178.801 59.434 178.438 57.8446 178.438 56.074ZM192.87 56.138C192.87 54.922 192.614 53.866 192.102 52.97C191.612 52.074 190.961 51.3913 190.15 50.922C189.34 50.4526 188.465 50.218 187.526 50.218C186.588 50.218 185.713 50.4526 184.902 50.922C184.092 51.37 183.43 52.042 182.918 52.938C182.428 53.8126 182.182 54.858 182.182 56.074C182.182 57.29 182.428 58.3566 182.918 59.274C183.43 60.1913 184.092 60.8953 184.902 61.386C185.734 61.8553 186.609 62.09 187.526 62.09C188.465 62.09 189.34 61.8553 190.15 61.386C190.961 60.9166 191.612 60.234 192.102 59.338C192.614 58.4206 192.87 57.354 192.87 56.138ZM204.99 41.29V64.97H201.342V41.29H204.99Z"/>
</mask>
<path d="M36.0666 64.97L27.4586 55.018V64.97H23.8106V42.73H27.4586V52.874L36.0986 42.73H40.6746L31.0106 53.866L40.8346 64.97H36.0666ZM45.9166 45.002C45.2553 45.002 44.7006 44.778 44.2526 44.33C43.8046 43.882 43.5806 43.3273 43.5806 42.666C43.5806 42.0046 43.8046 41.45 44.2526 41.002C44.7006 40.554 45.2553 40.33 45.9166 40.33C46.5566 40.33 47.1006 40.554 47.5486 41.002C47.9966 41.45 48.2206 42.0046 48.2206 42.666C48.2206 43.3273 47.9966 43.882 47.5486 44.33C47.1006 44.778 46.5566 45.002 45.9166 45.002ZM47.7086 47.338V64.97H44.0606V47.338H47.7086ZM60.1461 65.258C58.4821 65.258 56.9781 64.8846 55.6341 64.138C54.2901 63.37 53.2341 62.3033 52.4661 60.938C51.6981 59.5513 51.3141 57.9513 51.3141 56.138C51.3141 54.346 51.7088 52.7566 52.4981 51.37C53.2875 49.9833 54.3648 48.9166 55.7301 48.17C57.0955 47.4233 58.6208 47.05 60.3061 47.05C61.9915 47.05 63.5168 47.4233 64.8821 48.17C66.2475 48.9166 67.3248 49.9833 68.1141 51.37C68.9035 52.7566 69.2981 54.346 69.2981 56.138C69.2981 57.93 68.8928 59.5193 68.0821 60.906C67.2715 62.2926 66.1621 63.37 64.7541 64.138C63.3675 64.8846 61.8315 65.258 60.1461 65.258ZM60.1461 62.09C61.0848 62.09 61.9595 61.866 62.7701 61.418C63.6021 60.97 64.2741 60.298 64.7861 59.402C65.2981 58.506 65.5541 57.418 65.5541 56.138C65.5541 54.858 65.3088 53.7806 64.8181 52.906C64.3275 52.01 63.6768 51.338 62.8661 50.89C62.0555 50.442 61.1808 50.218 60.2421 50.218C59.3035 50.218 58.4288 50.442 57.6181 50.89C56.8288 51.338 56.1995 52.01 55.7301 52.906C55.2608 53.7806 55.0261 54.858 55.0261 56.138C55.0261 58.0366 55.5061 59.5086 56.4661 60.554C57.4475 61.578 58.6741 62.09 60.1461 62.09ZM79.3044 65.258C77.9177 65.258 76.6697 65.0126 75.5604 64.522C74.4724 64.01 73.6084 63.3273 72.9684 62.474C72.3284 61.5993 71.9871 60.6286 71.9444 59.562H75.7204C75.7844 60.3086 76.1364 60.938 76.7764 61.45C77.4377 61.9406 78.2591 62.186 79.2404 62.186C80.2644 62.186 81.0537 61.994 81.6084 61.61C82.1844 61.2046 82.4724 60.6926 82.4724 60.074C82.4724 59.4126 82.1524 58.922 81.5124 58.602C80.8937 58.282 79.9017 57.93 78.5364 57.546C77.2137 57.1833 76.1364 56.8313 75.3044 56.49C74.4724 56.1486 73.7471 55.626 73.1284 54.922C72.5311 54.218 72.2324 53.29 72.2324 52.138C72.2324 51.1993 72.5097 50.346 73.0644 49.578C73.6191 48.7886 74.4084 48.17 75.4324 47.722C76.4777 47.274 77.6724 47.05 79.0164 47.05C81.0217 47.05 82.6324 47.562 83.8484 48.586C85.0857 49.5886 85.7471 50.9646 85.8324 52.714H82.1844C82.1204 51.9246 81.8004 51.2953 81.2244 50.826C80.6484 50.3566 79.8697 50.122 78.8884 50.122C77.9284 50.122 77.1924 50.3033 76.6804 50.666C76.1684 51.0286 75.9124 51.5086 75.9124 52.106C75.9124 52.5753 76.0831 52.97 76.4244 53.29C76.7657 53.61 77.1817 53.866 77.6724 54.058C78.1631 54.2286 78.8884 54.4526 79.8484 54.73C81.1284 55.0713 82.1737 55.4233 82.9844 55.786C83.8164 56.1273 84.5311 56.6393 85.1284 57.322C85.7257 58.0046 86.0351 58.9113 86.0564 60.042C86.0564 61.0446 85.7791 61.9406 85.2244 62.73C84.6697 63.5193 83.8804 64.138 82.8564 64.586C81.8537 65.034 80.6697 65.258 79.3044 65.258ZM96.9741 56.17L105.102 64.97H100.174L93.6461 57.386V64.97H89.9981V41.29H93.6461V55.05L100.046 47.338H105.102L96.9741 56.17ZM131.581 49.354C131.581 50.4846 131.315 51.5513 130.781 52.554C130.248 53.5566 129.395 54.378 128.221 55.018C127.048 55.6366 125.544 55.946 123.709 55.946H119.677V64.97H116.029V42.73H123.709C125.416 42.73 126.856 43.0286 128.029 43.626C129.224 44.202 130.109 44.9913 130.685 45.994C131.283 46.9966 131.581 48.1166 131.581 49.354ZM123.709 52.97C125.096 52.97 126.131 52.6606 126.813 52.042C127.496 51.402 127.837 50.506 127.837 49.354C127.837 46.922 126.461 45.706 123.709 45.706H119.677V52.97H123.709ZM142.709 65.258C141.045 65.258 139.541 64.8846 138.197 64.138C136.853 63.37 135.797 62.3033 135.029 60.938C134.261 59.5513 133.877 57.9513 133.877 56.138C133.877 54.346 134.271 52.7566 135.061 51.37C135.85 49.9833 136.927 48.9166 138.293 48.17C139.658 47.4233 141.183 47.05 142.869 47.05C144.554 47.05 146.079 47.4233 147.445 48.17C148.81 48.9166 149.887 49.9833 150.677 51.37C151.466 52.7566 151.861 54.346 151.861 56.138C151.861 57.93 151.455 59.5193 150.645 60.906C149.834 62.2926 148.725 63.37 147.317 64.138C145.93 64.8846 144.394 65.258 142.709 65.258ZM142.709 62.09C143.647 62.09 144.522 61.866 145.333 61.418C146.165 60.97 146.837 60.298 147.349 59.402C147.861 58.506 148.117 57.418 148.117 56.138C148.117 54.858 147.871 53.7806 147.381 52.906C146.89 52.01 146.239 51.338 145.429 50.89C144.618 50.442 143.743 50.218 142.805 50.218C141.866 50.218 140.991 50.442 140.181 50.89C139.391 51.338 138.762 52.01 138.293 52.906C137.823 53.7806 137.589 54.858 137.589 56.138C137.589 58.0366 138.069 59.5086 139.029 60.554C140.01 61.578 141.237 62.09 142.709 62.09ZM159.115 49.898C159.648 49.002 160.352 48.3086 161.227 47.818C162.123 47.306 163.179 47.05 164.395 47.05V50.826H163.467C162.038 50.826 160.95 51.1886 160.203 51.914C159.478 52.6393 159.115 53.898 159.115 55.69V64.97H155.467V47.338H159.115V49.898ZM172.004 50.314V60.074C172.004 60.7353 172.153 61.2153 172.452 61.514C172.772 61.7913 173.305 61.93 174.052 61.93H176.292V64.97H173.412C171.769 64.97 170.511 64.586 169.636 63.818C168.761 63.05 168.324 61.802 168.324 60.074V50.314H166.244V47.338H168.324V42.954H172.004V47.338H176.292V50.314H172.004ZM178.438 56.074C178.438 54.3033 178.801 52.7353 179.526 51.37C180.273 50.0046 181.276 48.9486 182.534 48.202C183.814 47.434 185.222 47.05 186.758 47.05C188.145 47.05 189.35 47.3273 190.374 47.882C191.42 48.4153 192.252 49.0873 192.87 49.898V47.338H196.55V64.97H192.87V62.346C192.252 63.178 191.409 63.8713 190.342 64.426C189.276 64.9806 188.06 65.258 186.694 65.258C185.18 65.258 183.793 64.874 182.534 64.106C181.276 63.3166 180.273 62.2286 179.526 60.842C178.801 59.434 178.438 57.8446 178.438 56.074ZM192.87 56.138C192.87 54.922 192.614 53.866 192.102 52.97C191.612 52.074 190.961 51.3913 190.15 50.922C189.34 50.4526 188.465 50.218 187.526 50.218C186.588 50.218 185.713 50.4526 184.902 50.922C184.092 51.37 183.43 52.042 182.918 52.938C182.428 53.8126 182.182 54.858 182.182 56.074C182.182 57.29 182.428 58.3566 182.918 59.274C183.43 60.1913 184.092 60.8953 184.902 61.386C185.734 61.8553 186.609 62.09 187.526 62.09C188.465 62.09 189.34 61.8553 190.15 61.386C190.961 60.9166 191.612 60.234 192.102 59.338C192.614 58.4206 192.87 57.354 192.87 56.138ZM204.99 41.29V64.97H201.342V41.29H204.99Z" fill="#0A0000"/>
<path d="M36.0666 64.97L35.3103 65.6242L35.6094 65.97H36.0666V64.97ZM27.4586 55.018L28.215 54.3638L26.4586 52.3332V55.018H27.4586ZM27.4586 64.97V65.97H28.4586V64.97H27.4586ZM23.8106 64.97H22.8106V65.97H23.8106V64.97ZM23.8106 42.73V41.73H22.8106V42.73H23.8106ZM27.4586 42.73H28.4586V41.73H27.4586V42.73ZM27.4586 52.874H26.4586V55.5903L28.2199 53.5224L27.4586 52.874ZM36.0986 42.73V41.73H35.6368L35.3374 42.0816L36.0986 42.73ZM40.6746 42.73L41.4299 43.3854L42.8665 41.73H40.6746V42.73ZM31.0106 53.866L30.2554 53.2105L29.6811 53.8723L30.2617 54.5286L31.0106 53.866ZM40.8346 64.97V65.97H43.0546L41.5836 64.3074L40.8346 64.97ZM36.823 64.3158L28.215 54.3638L26.7023 55.6722L35.3103 65.6242L36.823 64.3158ZM26.4586 55.018V64.97H28.4586V55.018H26.4586ZM27.4586 63.97H23.8106V65.97H27.4586V63.97ZM24.8106 64.97V42.73H22.8106V64.97H24.8106ZM23.8106 43.73H27.4586V41.73H23.8106V43.73ZM26.4586 42.73V52.874H28.4586V42.73H26.4586ZM28.2199 53.5224L36.8599 43.3784L35.3374 42.0816L26.6974 52.2256L28.2199 53.5224ZM36.0986 43.73H40.6746V41.73H36.0986V43.73ZM39.9194 42.0745L30.2554 53.2105L31.7659 54.5214L41.4299 43.3854L39.9194 42.0745ZM30.2617 54.5286L40.0857 65.6326L41.5836 64.3074L31.7596 53.2034L30.2617 54.5286ZM40.8346 63.97H36.0666V65.97H40.8346V63.97ZM44.2526 44.33L44.9598 43.6229V43.6229L44.2526 44.33ZM44.2526 41.002L44.9598 41.7091V41.7091L44.2526 41.002ZM47.5486 41.002L46.8415 41.7091L46.8415 41.7091L47.5486 41.002ZM47.5486 44.33L46.8415 43.6229L46.8415 43.6229L47.5486 44.33ZM47.7086 47.338H48.7086V46.338H47.7086V47.338ZM47.7086 64.97V65.97H48.7086V64.97H47.7086ZM44.0606 64.97H43.0606V65.97H44.0606V64.97ZM44.0606 47.338V46.338H43.0606V47.338H44.0606ZM45.9166 44.002C45.5076 44.002 45.2113 43.8744 44.9598 43.6229L43.5455 45.0371C44.19 45.6816 45.003 46.002 45.9166 46.002V44.002ZM44.9598 43.6229C44.7083 43.3714 44.5806 43.075 44.5806 42.666H42.5806C42.5806 43.5796 42.901 44.3926 43.5455 45.0371L44.9598 43.6229ZM44.5806 42.666C44.5806 42.2569 44.7083 41.9606 44.9598 41.7091L43.5455 40.2949C42.901 40.9394 42.5806 41.7524 42.5806 42.666H44.5806ZM44.9598 41.7091C45.2113 41.4576 45.5076 41.33 45.9166 41.33V39.33C45.003 39.33 44.19 39.6504 43.5455 40.2949L44.9598 41.7091ZM45.9166 41.33C46.2945 41.33 46.5832 41.4507 46.8415 41.7091L48.2558 40.2949C47.6181 39.6572 46.8188 39.33 45.9166 39.33V41.33ZM46.8415 41.7091C47.093 41.9606 47.2206 42.2569 47.2206 42.666H49.2206C49.2206 41.7524 48.9003 40.9394 48.2558 40.2949L46.8415 41.7091ZM47.2206 42.666C47.2206 43.075 47.093 43.3714 46.8415 43.6229L48.2558 45.0371C48.9003 44.3926 49.2206 43.5796 49.2206 42.666H47.2206ZM46.8415 43.6229C46.5832 43.8812 46.2945 44.002 45.9166 44.002V46.002C46.8188 46.002 47.6181 45.6747 48.2558 45.0371L46.8415 43.6229ZM46.7086 47.338V64.97H48.7086V47.338H46.7086ZM47.7086 63.97H44.0606V65.97H47.7086V63.97ZM45.0606 64.97V47.338H43.0606V64.97H45.0606ZM44.0606 48.338H47.7086V46.338H44.0606V48.338ZM55.6341 64.138L55.138 65.0063L55.1485 65.0121L55.6341 64.138ZM52.4661 60.938L51.5913 61.4225L51.5946 61.4282L52.4661 60.938ZM55.7301 48.17L55.2503 47.2926L55.7301 48.17ZM64.8821 48.17L65.362 47.2926L64.8821 48.17ZM68.0821 60.906L67.2188 60.4013L68.0821 60.906ZM64.7541 64.138L65.2283 65.0185L65.233 65.0159L64.7541 64.138ZM62.7701 61.418L62.296 60.5374L62.2865 60.5427L62.7701 61.418ZM64.7861 59.402L63.9179 58.9058L64.7861 59.402ZM64.8181 52.906L63.941 53.3863L63.946 53.3952L64.8181 52.906ZM57.6181 50.89L57.1344 50.0147L57.1245 50.0203L57.6181 50.89ZM55.7301 52.906L56.6113 53.3788L56.616 53.37L55.7301 52.906ZM56.4661 60.554L55.7296 61.2304L55.7368 61.2382L55.7442 61.2459L56.4661 60.554ZM60.1461 64.258C58.6377 64.258 57.3031 63.9212 56.1198 63.2638L55.1485 65.0121C56.6531 65.848 58.3266 66.258 60.1461 66.258V64.258ZM56.1303 63.2697C54.9453 62.5926 54.0182 61.6574 53.3377 60.4477L51.5946 61.4282C52.4501 62.9492 53.635 64.1474 55.138 65.0062L56.1303 63.2697ZM53.3409 60.4535C52.6662 59.2353 52.3141 57.8065 52.3141 56.138H50.3141C50.3141 58.0961 50.73 59.8673 51.5914 61.4225L53.3409 60.4535ZM52.3141 56.138C52.3141 54.4977 52.6739 53.0827 53.3672 51.8647L51.6291 50.8753C50.7438 52.4305 50.3141 54.1943 50.3141 56.138H52.3141ZM53.3672 51.8647C54.0672 50.6349 55.0116 49.7027 56.21 49.0473L55.2503 47.2926C53.718 48.1306 52.5077 49.3317 51.6291 50.8753L53.3672 51.8647ZM56.21 49.0473C57.4161 48.3877 58.7742 48.05 60.3061 48.05V46.05C58.4674 46.05 56.7748 46.4589 55.2503 47.2926L56.21 49.0473ZM60.3061 48.05C61.8381 48.05 63.1962 48.3877 64.4023 49.0473L65.362 47.2926C63.8374 46.4589 62.1449 46.05 60.3061 46.05V48.05ZM64.4023 49.0473C65.6007 49.7027 66.5451 50.6349 67.2451 51.8647L68.9832 50.8753C68.1046 49.3317 66.8943 48.1306 65.362 47.2926L64.4023 49.0473ZM67.2451 51.8647C67.9384 53.0827 68.2981 54.4977 68.2981 56.138H70.2981C70.2981 54.1943 69.8685 52.4305 68.9832 50.8753L67.2451 51.8647ZM68.2981 56.138C68.2981 57.7736 67.93 59.1849 67.2188 60.4013L68.9454 61.4107C69.8557 59.8537 70.2981 58.0863 70.2981 56.138H68.2981ZM67.2188 60.4013C66.4999 61.6311 65.5233 62.5793 64.2753 63.2601L65.233 65.0159C66.801 64.1606 68.0431 62.9541 68.9454 61.4107L67.2188 60.4013ZM64.28 63.2575C63.0492 63.9202 61.6779 64.258 60.1461 64.258V66.258C61.985 66.258 63.6857 65.849 65.2282 65.0184L64.28 63.2575ZM60.1461 63.09C61.2516 63.09 62.293 62.8242 63.2538 62.2932L62.2865 60.5427C61.6259 60.9078 60.918 61.09 60.1461 61.09V63.09ZM63.2442 62.2984C64.256 61.7536 65.0584 60.9411 65.6544 59.8981L63.9179 58.9058C63.4899 59.6549 62.9482 60.1863 62.296 60.5375L63.2442 62.2984ZM65.6544 59.8981C66.2712 58.8187 66.5541 57.5506 66.5541 56.138H64.5541C64.5541 57.2853 64.3251 58.1932 63.9179 58.9058L65.6544 59.8981ZM66.5541 56.138C66.5541 54.733 66.2849 53.4766 65.6903 52.4167L63.946 53.3952C64.3328 54.0847 64.5541 54.983 64.5541 56.138H66.5541ZM65.6952 52.4257C65.1232 51.3811 64.3433 50.5637 63.3498 50.0147L62.3825 51.7652C63.0104 52.1122 63.5317 52.6388 63.941 53.3863L65.6952 52.4257ZM63.3498 50.0147C62.389 49.4838 61.3476 49.218 60.2421 49.218V51.218C61.014 51.218 61.7219 51.4002 62.3825 51.7652L63.3498 50.0147ZM60.2421 49.218C59.1367 49.218 58.0953 49.4838 57.1345 50.0147L58.1018 51.7652C58.7624 51.4002 59.4703 51.218 60.2421 51.218V49.218ZM57.1245 50.0203C56.1495 50.5737 55.3922 51.396 54.8443 52.442L56.616 53.37C57.0068 52.6239 57.5081 52.1023 58.1118 51.7597L57.1245 50.0203ZM54.849 52.4332C54.2823 53.4893 54.0261 54.7394 54.0261 56.138H56.0261C56.0261 54.9765 56.2393 54.072 56.6113 53.3788L54.849 52.4332ZM54.0261 56.138C54.0261 58.2009 54.5497 59.9456 55.7296 61.2304L57.2027 59.8776C56.4626 59.0717 56.0261 57.8723 56.0261 56.138H54.0261ZM55.7442 61.2459C56.922 62.4749 58.4131 63.09 60.1461 63.09V61.09C58.9351 61.09 57.973 60.681 57.1881 59.8621L55.7442 61.2459ZM75.5604 64.522L75.1346 65.4268L75.1452 65.4318L75.1559 65.4365L75.5604 64.522ZM72.9684 62.474L72.1613 63.0645L72.1684 63.074L72.9684 62.474ZM71.9444 59.562V58.562H70.9036L70.9452 59.6019L71.9444 59.562ZM75.7204 59.562L76.7167 59.4766L76.6383 58.562H75.7204V59.562ZM76.7764 61.45L76.1517 62.2308L76.1659 62.2422L76.1805 62.2531L76.7764 61.45ZM81.6084 61.61L82.1776 62.4322L82.1839 62.4278L81.6084 61.61ZM81.5124 58.602L81.0529 59.4903L81.0652 59.4964L81.5124 58.602ZM78.5364 57.546L78.8071 56.5833L78.8008 56.5816L78.5364 57.546ZM75.3044 56.49L74.9248 57.4151L75.3044 56.49ZM73.1284 54.922L72.3659 55.5689L72.3715 55.5756L72.3772 55.5821L73.1284 54.922ZM73.0644 49.578L73.8751 50.1635L73.8826 50.1529L73.0644 49.578ZM75.4324 47.722L75.0385 46.8028L75.0316 46.8058L75.4324 47.722ZM83.8484 48.586L83.2043 49.3509L83.2115 49.357L83.2188 49.3629L83.8484 48.586ZM85.8324 52.714V53.714H86.8824L86.8312 52.6652L85.8324 52.714ZM82.1844 52.714L81.1877 52.7948L81.2622 53.714H82.1844V52.714ZM81.2244 50.826L81.8561 50.0507L81.2244 50.826ZM76.6804 50.666L76.1024 49.8499H76.1024L76.6804 50.666ZM76.4244 53.29L75.7405 54.0195L75.7405 54.0195L76.4244 53.29ZM77.6724 54.058L77.308 54.9892L77.3258 54.9962L77.3439 55.0025L77.6724 54.058ZM79.8484 54.73L79.5709 55.6907L79.5808 55.6935L79.5907 55.6962L79.8484 54.73ZM82.9844 55.786L82.576 56.6988L82.5903 56.7052L82.6048 56.7111L82.9844 55.786ZM85.1284 57.322L84.3758 57.9805H84.3758L85.1284 57.322ZM86.0564 60.042H87.0564V60.0325L87.0562 60.0231L86.0564 60.042ZM85.2244 62.73L84.4062 62.155L85.2244 62.73ZM82.8564 64.586L82.4556 63.6698L82.4485 63.673L82.8564 64.586ZM79.3044 64.258C78.0372 64.258 76.9298 64.0342 75.9649 63.6074L75.1559 65.4365C76.4096 65.991 77.7983 66.258 79.3044 66.258V64.258ZM75.9862 63.6172C75.0269 63.1657 74.2985 62.5808 73.7684 61.874L72.1684 63.074C72.9183 64.0738 73.9179 64.8542 75.1346 65.4268L75.9862 63.6172ZM73.7754 61.8835C73.2508 61.1665 72.9782 60.3869 72.9436 59.522L70.9452 59.6019C70.9959 60.8703 71.4059 62.0321 72.1614 63.0645L73.7754 61.8835ZM71.9444 60.562H75.7204V58.562H71.9444V60.562ZM74.724 59.6474C74.8138 60.6941 75.32 61.5655 76.1517 62.2308L77.4011 60.6691C76.9528 60.3104 76.755 59.9232 76.7167 59.4766L74.724 59.6474ZM76.1805 62.2531C77.0454 62.8947 78.0868 63.186 79.2404 63.186V61.186C78.4313 61.186 77.8301 60.9866 77.3722 60.6469L76.1805 62.2531ZM79.2404 63.186C80.369 63.186 81.3896 62.9777 82.1776 62.4322L81.0392 60.7878C80.7178 61.0103 80.1598 61.186 79.2404 61.186V63.186ZM82.1839 62.4278C82.9834 61.8651 83.4724 61.0669 83.4724 60.074H81.4724C81.4724 60.3184 81.3854 60.5441 81.0329 60.7922L82.1839 62.4278ZM83.4724 60.074C83.4724 59.5751 83.3492 59.0919 83.07 58.6637C82.7937 58.24 82.4033 57.9294 81.9596 57.7075L81.0652 59.4964C81.2615 59.5946 81.3511 59.6892 81.3948 59.7562C81.4356 59.8187 81.4724 59.9115 81.4724 60.074H83.4724ZM81.9718 57.7138C81.2586 57.3449 80.1852 56.9709 78.8071 56.5833L78.2656 58.5086C79.6182 58.889 80.5288 59.2191 81.053 59.4902L81.9718 57.7138ZM78.8008 56.5816C77.4993 56.2247 76.4644 55.885 75.684 55.5648L74.9248 57.4151C75.8084 57.7776 76.9282 58.1419 78.272 58.5104L78.8008 56.5816ZM75.684 55.5648C75.0007 55.2845 74.4009 54.8551 73.8796 54.2619L72.3772 55.5821C73.0933 56.3969 73.9441 57.0128 74.9248 57.4151L75.684 55.5648ZM73.8909 54.275C73.482 53.7931 73.2324 53.1136 73.2324 52.138H71.2324C71.2324 53.4664 71.5801 54.6429 72.3659 55.5689L73.8909 54.275ZM73.2324 52.138C73.2324 51.4116 73.4423 50.7627 73.8751 50.1635L72.2537 48.9925C71.5772 49.9292 71.2324 50.987 71.2324 52.138H73.2324ZM73.8826 50.1529C74.3162 49.5358 74.9499 49.0246 75.8332 48.6381L75.0316 46.8058C73.8669 47.3154 72.9219 48.0415 72.2462 49.003L73.8826 50.1529ZM75.8263 48.6411C76.7267 48.2552 77.7836 48.05 79.0164 48.05V46.05C77.5612 46.05 76.2288 46.2927 75.0385 46.8028L75.8263 48.6411ZM79.0164 48.05C80.8493 48.05 82.2117 48.515 83.2043 49.3509L84.4925 47.8211C83.0531 46.6089 81.1941 46.05 79.0164 46.05V48.05ZM83.2188 49.3629C84.2115 50.1674 84.7606 51.2659 84.8336 52.7627L86.8312 52.6652C86.7336 50.6634 85.9599 49.0099 84.478 47.809L83.2188 49.3629ZM85.8324 51.714H82.1844V53.714H85.8324V51.714ZM83.1811 52.6332C83.0967 51.5922 82.6583 50.7044 81.8561 50.0507L80.5927 51.6012C80.9425 51.8862 81.1441 52.257 81.1877 52.7948L83.1811 52.6332ZM81.8561 50.0507C81.0515 49.3951 80.0256 49.122 78.8884 49.122V51.122C79.7139 51.122 80.2453 51.3181 80.5927 51.6012L81.8561 50.0507ZM78.8884 49.122C77.8242 49.122 76.8514 49.3194 76.1024 49.8499L77.2584 51.482C77.5334 51.2872 78.0326 51.122 78.8884 51.122V49.122ZM76.1024 49.8499C75.3415 50.3889 74.9124 51.1655 74.9124 52.106H76.9124C76.9124 51.8518 76.9953 51.6683 77.2584 51.482L76.1024 49.8499ZM74.9124 52.106C74.9124 52.8507 75.1968 53.5098 75.7405 54.0195L77.1083 52.5604C76.9694 52.4301 76.9124 52.2999 76.9124 52.106H74.9124ZM75.7405 54.0195C76.1855 54.4367 76.7138 54.7567 77.308 54.9892L78.0368 53.1267C77.6496 52.9752 77.346 52.7832 77.1083 52.5604L75.7405 54.0195ZM77.3439 55.0025C77.8604 55.1821 78.6063 55.412 79.5709 55.6907L80.1259 53.7693C79.1705 53.4932 78.4658 53.2752 78.0009 53.1135L77.3439 55.0025ZM79.5907 55.6962C80.8416 56.0298 81.8315 56.3657 82.576 56.6988L83.3928 54.8732C82.516 54.4809 81.4152 54.1128 80.1061 53.7637L79.5907 55.6962ZM82.6048 56.7111C83.2922 56.9931 83.8796 57.4133 84.3758 57.9805L85.881 56.6635C85.1826 55.8653 84.3406 55.2615 83.364 54.8608L82.6048 56.7111ZM84.3758 57.9805C84.7825 58.4453 85.0386 59.1059 85.0566 60.0608L87.0562 60.0231C87.0316 58.7167 86.6689 57.564 85.881 56.6635L84.3758 57.9805ZM85.0564 60.042C85.0564 60.8475 84.8377 61.541 84.4062 62.155L86.0426 63.3049C86.7204 62.3403 87.0564 61.2418 87.0564 60.042H85.0564ZM84.4062 62.155C83.9726 62.7721 83.3389 63.2834 82.4556 63.6698L83.2572 65.5021C84.4219 64.9926 85.3669 64.2665 86.0426 63.3049L84.4062 62.155ZM82.4485 63.673C81.6014 64.0515 80.5624 64.258 79.3044 64.258V66.258C80.7771 66.258 82.1061 66.0165 83.2643 65.499L82.4485 63.673ZM96.9741 56.17L96.2383 55.4928L95.614 56.1712L96.2395 56.8485L96.9741 56.17ZM105.102 64.97V65.97H107.387L105.837 64.2915L105.102 64.97ZM100.174 64.97L99.4162 65.6223L99.7155 65.97H100.174V64.97ZM93.6461 57.386L94.404 56.7336L92.6461 54.6913V57.386H93.6461ZM93.6461 64.97V65.97H94.6461V64.97H93.6461ZM89.9981 64.97H88.9981V65.97H89.9981V64.97ZM89.9981 41.29V40.29H88.9981V41.29H89.9981ZM93.6461 41.29H94.6461V40.29H93.6461V41.29ZM93.6461 55.05H92.6461V57.8209L94.4157 55.6886L93.6461 55.05ZM100.046 47.338V46.338H99.5765L99.2766 46.6994L100.046 47.338ZM105.102 47.338L105.838 48.0151L107.381 46.338H105.102V47.338ZM96.2395 56.8485L104.368 65.6485L105.837 64.2915L97.7087 55.4915L96.2395 56.8485ZM105.102 63.97H100.174V65.97H105.102V63.97ZM100.932 64.3176L94.404 56.7336L92.8882 58.0383L99.4162 65.6223L100.932 64.3176ZM92.6461 57.386V64.97H94.6461V57.386H92.6461ZM93.6461 63.97H89.9981V65.97H93.6461V63.97ZM90.9981 64.97V41.29H88.9981V64.97H90.9981ZM89.9981 42.29H93.6461V40.29H89.9981V42.29ZM92.6461 41.29V55.05H94.6461V41.29H92.6461ZM94.4157 55.6886L100.816 47.9766L99.2766 46.6994L92.8766 54.4114L94.4157 55.6886ZM100.046 48.338H105.102V46.338H100.046V48.338ZM104.366 46.6608L96.2383 55.4928L97.71 56.8471L105.838 48.0151L104.366 46.6608ZM130.781 52.554L129.899 52.0844V52.0844L130.781 52.554ZM128.221 55.018L128.688 55.9026L128.7 55.8959L128.221 55.018ZM119.677 55.946V54.946H118.677V55.946H119.677ZM119.677 64.97V65.97H120.677V64.97H119.677ZM116.029 64.97H115.029V65.97H116.029V64.97ZM116.029 42.73V41.73H115.029V42.73H116.029ZM128.029 43.626L127.576 44.5171L127.585 44.522L127.595 44.5267L128.029 43.626ZM130.685 45.994L129.818 46.4921L129.822 46.499L129.826 46.5058L130.685 45.994ZM126.813 52.042L127.485 52.783L127.491 52.7773L127.497 52.7715L126.813 52.042ZM119.677 45.706V44.706H118.677V45.706H119.677ZM119.677 52.97H118.677V53.97H119.677V52.97ZM130.581 49.354C130.581 50.3201 130.355 51.2256 129.899 52.0844L131.664 53.0236C132.274 51.877 132.581 50.6492 132.581 49.354H130.581ZM129.899 52.0844C129.472 52.8856 128.775 53.5768 127.743 54.1401L128.7 55.8959C130.014 55.1791 131.024 54.2276 131.664 53.0236L129.899 52.0844ZM127.755 54.1334C126.77 54.6528 125.441 54.946 123.709 54.946V56.946C125.648 56.946 127.326 56.6204 128.688 55.9025L127.755 54.1334ZM123.709 54.946H119.677V56.946H123.709V54.946ZM118.677 55.946V64.97H120.677V55.946H118.677ZM119.677 63.97H116.029V65.97H119.677V63.97ZM117.029 64.97V42.73H115.029V64.97H117.029ZM116.029 43.73H123.709V41.73H116.029V43.73ZM123.709 43.73C125.304 43.73 126.578 44.0093 127.576 44.5171L128.483 42.7348C127.134 42.0479 125.529 41.73 123.709 41.73V43.73ZM127.595 44.5267C128.636 45.0285 129.357 45.6889 129.818 46.4921L131.552 45.4958C130.862 44.2937 129.812 43.3755 128.464 42.7252L127.595 44.5267ZM129.826 46.5058C130.326 47.3442 130.581 48.2855 130.581 49.354H132.581C132.581 47.9477 132.24 46.649 131.544 45.4822L129.826 46.5058ZM123.709 53.97C125.222 53.97 126.544 53.6352 127.485 52.783L126.142 51.301C125.717 51.686 124.97 51.97 123.709 51.97V53.97ZM127.497 52.7715C128.427 51.9002 128.837 50.7139 128.837 49.354H126.837C126.837 50.2981 126.565 50.9037 126.129 51.3124L127.497 52.7715ZM128.837 49.354C128.837 47.9496 128.434 46.723 127.468 45.8686C126.524 45.0351 125.211 44.706 123.709 44.706V46.706C124.96 46.706 125.71 46.9849 126.143 47.3673C126.552 47.7289 126.837 48.3264 126.837 49.354H128.837ZM123.709 44.706H119.677V46.706H123.709V44.706ZM118.677 45.706V52.97H120.677V45.706H118.677ZM119.677 53.97H123.709V51.97H119.677V53.97ZM138.197 64.138L137.7 65.0063L137.711 65.0121L138.197 64.138ZM135.029 60.938L134.154 61.4225L134.157 61.4282L135.029 60.938ZM138.293 48.17L137.813 47.2926L138.293 48.17ZM147.445 48.17L147.924 47.2926L147.445 48.17ZM150.645 60.906L149.781 60.4013L150.645 60.906ZM147.317 64.138L147.791 65.0185L147.795 65.0159L147.317 64.138ZM145.333 61.418L144.859 60.5374L144.849 60.5427L145.333 61.418ZM147.349 59.402L146.48 58.9058L147.349 59.402ZM147.381 52.906L146.504 53.3863L146.508 53.3952L147.381 52.906ZM140.181 50.89L139.697 50.0147L139.687 50.0203L140.181 50.89ZM138.293 52.906L139.174 53.3788L139.178 53.37L138.293 52.906ZM139.029 60.554L138.292 61.2304L138.299 61.2382L138.307 61.2459L139.029 60.554ZM142.709 64.258C141.2 64.258 139.866 63.9212 138.682 63.2638L137.711 65.0121C139.216 65.848 140.889 66.258 142.709 66.258V64.258ZM138.693 63.2697C137.508 62.5926 136.581 61.6574 135.9 60.4477L134.157 61.4282C135.013 62.9492 136.198 64.1474 137.701 65.0062L138.693 63.2697ZM135.903 60.4535C135.229 59.2353 134.877 57.8065 134.877 56.138H132.877C132.877 58.0961 133.293 59.8673 134.154 61.4225L135.903 60.4535ZM134.877 56.138C134.877 54.4977 135.236 53.0827 135.93 51.8647L134.192 50.8753C133.306 52.4305 132.877 54.1943 132.877 56.138H134.877ZM135.93 51.8647C136.63 50.6349 137.574 49.7027 138.772 49.0473L137.813 47.2926C136.28 48.1306 135.07 49.3317 134.192 50.8753L135.93 51.8647ZM138.772 49.0473C139.979 48.3877 141.337 48.05 142.869 48.05V46.05C141.03 46.05 139.337 46.4589 137.813 47.2926L138.772 49.0473ZM142.869 48.05C144.401 48.05 145.759 48.3877 146.965 49.0473L147.924 47.2926C146.4 46.4589 144.707 46.05 142.869 46.05V48.05ZM146.965 49.0473C148.163 49.7027 149.108 50.6349 149.808 51.8647L151.546 50.8753C150.667 49.3317 149.457 48.1306 147.924 47.2926L146.965 49.0473ZM149.808 51.8647C150.501 53.0827 150.861 54.4977 150.861 56.138H152.861C152.861 54.1943 152.431 52.4305 151.546 50.8753L149.808 51.8647ZM150.861 56.138C150.861 57.7736 150.492 59.1849 149.781 60.4013L151.508 61.4107C152.418 59.8537 152.861 58.0863 152.861 56.138H150.861ZM149.781 60.4013C149.062 61.6311 148.086 62.5793 146.838 63.2601L147.795 65.0159C149.363 64.1606 150.606 62.9541 151.508 61.4107L149.781 60.4013ZM146.843 63.2575C145.612 63.9202 144.24 64.258 142.709 64.258V66.258C144.548 66.258 146.248 65.849 147.791 65.0184L146.843 63.2575ZM142.709 63.09C143.814 63.09 144.856 62.8242 145.816 62.2932L144.849 60.5427C144.188 60.9078 143.481 61.09 142.709 61.09V63.09ZM145.807 62.2984C146.819 61.7536 147.621 60.9411 148.217 59.8981L146.48 58.9058C146.052 59.6549 145.511 60.1863 144.859 60.5375L145.807 62.2984ZM148.217 59.8981C148.834 58.8187 149.117 57.5506 149.117 56.138H147.117C147.117 57.2853 146.888 58.1932 146.48 58.9058L148.217 59.8981ZM149.117 56.138C149.117 54.733 148.847 53.4766 148.253 52.4167L146.508 53.3952C146.895 54.0847 147.117 54.983 147.117 56.138H149.117ZM148.258 52.4257C147.686 51.3811 146.906 50.5637 145.912 50.0147L144.945 51.7652C145.573 52.1122 146.094 52.6388 146.504 53.3863L148.258 52.4257ZM145.912 50.0147C144.952 49.4838 143.91 49.218 142.805 49.218V51.218C143.577 51.218 144.284 51.4002 144.945 51.7652L145.912 50.0147ZM142.805 49.218C141.699 49.218 140.658 49.4838 139.697 50.0147L140.664 51.7652C141.325 51.4002 142.033 51.218 142.805 51.218V49.218ZM139.687 50.0203C138.712 50.5737 137.955 51.396 137.407 52.442L139.178 53.37C139.569 52.6239 140.071 52.1023 140.674 51.7597L139.687 50.0203ZM137.411 52.4332C136.845 53.4893 136.589 54.7394 136.589 56.138H138.589C138.589 54.9765 138.802 54.072 139.174 53.3788L137.411 52.4332ZM136.589 56.138C136.589 58.2009 137.112 59.9456 138.292 61.2304L139.765 59.8776C139.025 59.0717 138.589 57.8723 138.589 56.138H136.589ZM138.307 61.2459C139.484 62.4749 140.976 63.09 142.709 63.09V61.09C141.498 61.09 140.535 60.681 139.751 59.8621L138.307 61.2459ZM159.115 49.898H158.115V53.5331L159.974 50.4095L159.115 49.898ZM161.227 47.818L161.716 48.6901L161.723 48.6862L161.227 47.818ZM164.395 47.05H165.395V46.05H164.395V47.05ZM164.395 50.826V51.826H165.395V50.826H164.395ZM160.203 51.914L159.506 51.1967L159.501 51.2017L159.496 51.2069L160.203 51.914ZM159.115 64.97V65.97H160.115V64.97H159.115ZM155.467 64.97H154.467V65.97H155.467V64.97ZM155.467 47.338V46.338H154.467V47.338H155.467ZM159.115 47.338H160.115V46.338H159.115V47.338ZM159.974 50.4095C160.422 49.6578 161.001 49.0916 161.716 48.6901L160.738 46.9458C159.704 47.5257 158.875 48.3462 158.256 49.3865L159.974 50.4095ZM161.723 48.6862C162.443 48.2748 163.322 48.05 164.395 48.05V46.05C163.036 46.05 161.803 46.3371 160.731 46.9497L161.723 48.6862ZM163.395 47.05V50.826H165.395V47.05H163.395ZM164.395 49.826H163.467V51.826H164.395V49.826ZM163.467 49.826C161.876 49.826 160.5 50.2312 159.506 51.1967L160.9 52.6312C161.399 52.146 162.199 51.826 163.467 51.826V49.826ZM159.496 51.2069C158.484 52.2185 158.115 53.8162 158.115 55.69H160.115C160.115 53.9798 160.471 53.0601 160.91 52.6211L159.496 51.2069ZM158.115 55.69V64.97H160.115V55.69H158.115ZM159.115 63.97H155.467V65.97H159.115V63.97ZM156.467 64.97V47.338H154.467V64.97H156.467ZM155.467 48.338H159.115V46.338H155.467V48.338ZM158.115 47.338V49.898H160.115V47.338H158.115ZM172.004 50.314V49.314H171.004V50.314H172.004ZM172.452 61.514L171.745 62.2211L171.77 62.2463L171.797 62.2697L172.452 61.514ZM176.292 61.93H177.292V60.93H176.292V61.93ZM176.292 64.97V65.97H177.292V64.97H176.292ZM169.636 63.818L168.976 64.5694L169.636 63.818ZM168.324 50.314H169.324V49.314H168.324V50.314ZM166.244 50.314H165.244V51.314H166.244V50.314ZM166.244 47.338V46.338H165.244V47.338H166.244ZM168.324 47.338V48.338H169.324V47.338H168.324ZM168.324 42.954V41.954H167.324V42.954H168.324ZM172.004 42.954H173.004V41.954H172.004V42.954ZM172.004 47.338H171.004V48.338H172.004V47.338ZM176.292 47.338H177.292V46.338H176.292V47.338ZM176.292 50.314V51.314H177.292V50.314H176.292ZM171.004 50.314V60.074H173.004V50.314H171.004ZM171.004 60.074C171.004 60.8548 171.176 61.6523 171.745 62.2211L173.159 60.8069C173.131 60.7783 173.004 60.6158 173.004 60.074H171.004ZM171.797 62.2697C172.394 62.7869 173.231 62.93 174.052 62.93V60.93C173.38 60.93 173.15 60.7957 173.107 60.7583L171.797 62.2697ZM174.052 62.93H176.292V60.93H174.052V62.93ZM175.292 61.93V64.97H177.292V61.93H175.292ZM176.292 63.97H173.412V65.97H176.292V63.97ZM173.412 63.97C171.913 63.97 170.925 63.6192 170.296 63.0665L168.976 64.5694C170.096 65.5528 171.626 65.97 173.412 65.97V63.97ZM170.296 63.0665C169.725 62.5651 169.324 61.6555 169.324 60.074H167.324C167.324 61.9485 167.798 63.5349 168.976 64.5694L170.296 63.0665ZM169.324 60.074V50.314H167.324V60.074H169.324ZM168.324 49.314H166.244V51.314H168.324V49.314ZM167.244 50.314V47.338H165.244V50.314H167.244ZM166.244 48.338H168.324V46.338H166.244V48.338ZM169.324 47.338V42.954H167.324V47.338H169.324ZM168.324 43.954H172.004V41.954H168.324V43.954ZM171.004 42.954V47.338H173.004V42.954H171.004ZM172.004 48.338H176.292V46.338H172.004V48.338ZM175.292 47.338V50.314H177.292V47.338H175.292ZM176.292 49.314H172.004V51.314H176.292V49.314ZM179.526 51.37L178.649 50.8901L178.643 50.9008L179.526 51.37ZM182.534 48.202L183.045 49.062L183.049 49.0595L182.534 48.202ZM190.374 47.882L189.898 48.7613L189.909 48.7671L189.92 48.7727L190.374 47.882ZM192.87 49.898L192.075 50.5046L193.87 52.8566V49.898H192.87ZM192.87 47.338V46.338H191.87V47.338H192.87ZM196.55 47.338H197.55V46.338H196.55V47.338ZM196.55 64.97V65.97H197.55V64.97H196.55ZM192.87 64.97H191.87V65.97H192.87V64.97ZM192.87 62.346H193.87V59.3253L192.068 61.7493L192.87 62.346ZM190.342 64.426L189.881 63.5388L190.342 64.426ZM182.534 64.106L182.003 64.9532L182.014 64.9596L182.534 64.106ZM179.526 60.842L178.637 61.2999L178.642 61.308L178.646 61.3161L179.526 60.842ZM192.102 52.97L191.225 53.4503L191.23 53.4582L191.234 53.4661L192.102 52.97ZM190.15 50.922L189.649 51.7874L190.15 50.922ZM184.902 50.922L185.386 51.7972L185.395 51.7924L185.403 51.7874L184.902 50.922ZM182.918 52.938L182.05 52.4418L182.046 52.4487L182.918 52.938ZM182.918 59.274L182.037 59.7456L182.041 59.7535L182.045 59.7613L182.918 59.274ZM184.902 61.386L184.385 62.2415L184.398 62.2494L184.411 62.257L184.902 61.386ZM190.15 61.386L190.651 62.2514L190.15 61.386ZM192.102 59.338L191.229 58.8506L191.225 58.8577L192.102 59.338ZM179.438 56.074C179.438 54.4429 179.771 53.0402 180.41 51.8391L178.643 50.9008C177.831 52.4304 177.438 54.1637 177.438 56.074H179.438ZM180.404 51.8498C181.07 50.6315 181.95 49.7113 183.045 49.062L182.024 47.3419C180.601 48.1859 179.476 49.3778 178.649 50.8902L180.404 51.8498ZM183.049 49.0595C184.169 48.3875 185.398 48.05 186.758 48.05V46.05C185.047 46.05 183.46 46.4804 182.02 47.3445L183.049 49.0595ZM186.758 48.05C188.01 48.05 189.046 48.2996 189.898 48.7613L190.851 47.0027C189.655 46.355 188.28 46.05 186.758 46.05V48.05ZM189.92 48.7727C190.852 49.2483 191.56 49.8297 192.075 50.5046L193.665 49.2913C192.943 48.3449 191.987 47.5823 190.829 46.9912L189.92 48.7727ZM193.87 49.898V47.338H191.87V49.898H193.87ZM192.87 48.338H196.55V46.338H192.87V48.338ZM195.55 47.338V64.97H197.55V47.338H195.55ZM196.55 63.97H192.87V65.97H196.55V63.97ZM193.87 64.97V62.346H191.87V64.97H193.87ZM192.068 61.7493C191.553 62.4419 190.835 63.0428 189.881 63.5388L190.804 65.3132C191.983 64.6998 192.951 63.914 193.673 62.9427L192.068 61.7493ZM189.881 63.5388C188.975 64.0098 187.921 64.258 186.694 64.258V66.258C188.198 66.258 189.576 65.9515 190.804 65.3132L189.881 63.5388ZM186.694 64.258C185.358 64.258 184.153 63.9219 183.055 63.2523L182.014 64.9596C183.434 65.826 185.001 66.258 186.694 66.258V64.258ZM183.066 63.2588C181.963 62.567 181.077 61.6115 180.407 60.3679L178.646 61.3161C179.47 62.8458 180.589 64.0662 182.003 64.9532L183.066 63.2588ZM180.415 60.384C179.771 59.1336 179.438 57.7044 179.438 56.074H177.438C177.438 57.9849 177.831 59.7343 178.637 61.2999L180.415 60.384ZM193.87 56.138C193.87 54.7792 193.583 53.5459 192.971 52.4738L191.234 53.4661C191.646 54.186 191.87 55.0648 191.87 56.138H193.87ZM192.979 52.4897C192.409 51.4483 191.634 50.6257 190.651 50.0565L189.649 51.7874C190.288 52.1569 190.814 52.6996 191.225 53.4503L192.979 52.4897ZM190.651 50.0565C189.688 49.4989 188.641 49.218 187.526 49.218V51.218C188.29 51.218 188.991 51.4064 189.649 51.7874L190.651 50.0565ZM187.526 49.218C186.412 49.218 185.365 49.4989 184.401 50.0565L185.403 51.7874C186.062 51.4064 186.763 51.218 187.526 51.218V49.218ZM184.419 50.0467C183.43 50.5933 182.642 51.4053 182.05 52.4418L183.787 53.4341C184.218 52.6787 184.754 52.1466 185.386 51.7972L184.419 50.0467ZM182.046 52.4487C181.456 53.5015 181.182 54.7229 181.182 56.074H183.182C183.182 54.9931 183.4 54.1237 183.791 53.4272L182.046 52.4487ZM181.182 56.074C181.182 57.4267 181.456 58.6605 182.037 59.7456L183.8 58.8023C183.399 58.0528 183.182 57.1533 183.182 56.074H181.182ZM182.045 59.7613C182.632 60.8133 183.41 61.6515 184.385 62.2415L185.42 60.5305C184.774 60.1391 184.228 59.5693 183.792 58.7866L182.045 59.7613ZM184.411 62.257C185.387 62.8072 186.43 63.09 187.526 63.09V61.09C186.788 61.09 186.082 60.9034 185.394 60.515L184.411 62.257ZM187.526 63.09C188.641 63.09 189.688 62.8091 190.651 62.2514L189.649 60.5205C188.991 60.9015 188.29 61.09 187.526 61.09V63.09ZM190.651 62.2514C191.634 61.6823 192.409 60.8596 192.979 59.8183L191.225 58.8577C190.814 59.6083 190.288 60.151 189.649 60.5205L190.651 62.2514ZM192.976 59.8253C193.583 58.737 193.87 57.4975 193.87 56.138H191.87C191.87 57.2105 191.646 58.1043 191.229 58.8506L192.976 59.8253ZM204.99 41.29H205.99V40.29H204.99V41.29ZM204.99 64.97V65.97H205.99V64.97H204.99ZM201.342 64.97H200.342V65.97H201.342V64.97ZM201.342 41.29V40.29H200.342V41.29H201.342ZM203.99 41.29V64.97H205.99V41.29H203.99ZM204.99 63.97H201.342V65.97H204.99V63.97ZM202.342 64.97V41.29H200.342V64.97H202.342ZM201.342 42.29H204.99V40.29H201.342V42.29Z" fill="black" mask="url(#path-2-outside-1_32_4)"/>
<path d="M36.0666 64.97L35.3103 65.6242L35.6094 65.97H36.0666V64.97ZM27.4586 55.018L28.215 54.3638L26.4586 52.3332V55.018H27.4586ZM27.4586 64.97V65.97H28.4586V64.97H27.4586ZM23.8106 64.97H22.8106V65.97H23.8106V64.97ZM23.8106 42.73V41.73H22.8106V42.73H23.8106ZM27.4586 42.73H28.4586V41.73H27.4586V42.73ZM27.4586 52.874H26.4586V55.5903L28.2199 53.5224L27.4586 52.874ZM36.0986 42.73V41.73H35.6368L35.3374 42.0816L36.0986 42.73ZM40.6746 42.73L41.4299 43.3854L42.8665 41.73H40.6746V42.73ZM31.0106 53.866L30.2554 53.2105L29.6811 53.8723L30.2617 54.5286L31.0106 53.866ZM40.8346 64.97V65.97H43.0546L41.5836 64.3074L40.8346 64.97ZM36.823 64.3158L28.215 54.3638L26.7023 55.6722L35.3103 65.6242L36.823 64.3158ZM26.4586 55.018V64.97H28.4586V55.018H26.4586ZM27.4586 63.97H23.8106V65.97H27.4586V63.97ZM24.8106 64.97V42.73H22.8106V64.97H24.8106ZM23.8106 43.73H27.4586V41.73H23.8106V43.73ZM26.4586 42.73V52.874H28.4586V42.73H26.4586ZM28.2199 53.5224L36.8599 43.3784L35.3374 42.0816L26.6974 52.2256L28.2199 53.5224ZM36.0986 43.73H40.6746V41.73H36.0986V43.73ZM39.9194 42.0745L30.2554 53.2105L31.7659 54.5214L41.4299 43.3854L39.9194 42.0745ZM30.2617 54.5286L40.0857 65.6326L41.5836 64.3074L31.7596 53.2034L30.2617 54.5286ZM40.8346 63.97H36.0666V65.97H40.8346V63.97ZM44.2526 44.33L44.9598 43.6229V43.6229L44.2526 44.33ZM44.2526 41.002L44.9598 41.7091V41.7091L44.2526 41.002ZM47.5486 41.002L46.8415 41.7091L46.8415 41.7091L47.5486 41.002ZM47.5486 44.33L46.8415 43.6229L46.8415 43.6229L47.5486 44.33ZM47.7086 47.338H48.7086V46.338H47.7086V47.338ZM47.7086 64.97V65.97H48.7086V64.97H47.7086ZM44.0606 64.97H43.0606V65.97H44.0606V64.97ZM44.0606 47.338V46.338H43.0606V47.338H44.0606ZM45.9166 44.002C45.5076 44.002 45.2113 43.8744 44.9598 43.6229L43.5455 45.0371C44.19 45.6816 45.003 46.002 45.9166 46.002V44.002ZM44.9598 43.6229C44.7083 43.3714 44.5806 43.075 44.5806 42.666H42.5806C42.5806 43.5796 42.901 44.3926 43.5455 45.0371L44.9598 43.6229ZM44.5806 42.666C44.5806 42.2569 44.7083 41.9606 44.9598 41.7091L43.5455 40.2949C42.901 40.9394 42.5806 41.7524 42.5806 42.666H44.5806ZM44.9598 41.7091C45.2113 41.4576 45.5076 41.33 45.9166 41.33V39.33C45.003 39.33 44.19 39.6504 43.5455 40.2949L44.9598 41.7091ZM45.9166 41.33C46.2945 41.33 46.5832 41.4507 46.8415 41.7091L48.2558 40.2949C47.6181 39.6572 46.8188 39.33 45.9166 39.33V41.33ZM46.8415 41.7091C47.093 41.9606 47.2206 42.2569 47.2206 42.666H49.2206C49.2206 41.7524 48.9003 40.9394 48.2558 40.2949L46.8415 41.7091ZM47.2206 42.666C47.2206 43.075 47.093 43.3714 46.8415 43.6229L48.2558 45.0371C48.9003 44.3926 49.2206 43.5796 49.2206 42.666H47.2206ZM46.8415 43.6229C46.5832 43.8812 46.2945 44.002 45.9166 44.002V46.002C46.8188 46.002 47.6181 45.6747 48.2558 45.0371L46.8415 43.6229ZM46.7086 47.338V64.97H48.7086V47.338H46.7086ZM47.7086 63.97H44.0606V65.97H47.7086V63.97ZM45.0606 64.97V47.338H43.0606V64.97H45.0606ZM44.0606 48.338H47.7086V46.338H44.0606V48.338ZM55.6341 64.138L55.138 65.0063L55.1485 65.0121L55.6341 64.138ZM52.4661 60.938L51.5913 61.4225L51.5946 61.4282L52.4661 60.938ZM55.7301 48.17L55.2503 47.2926L55.7301 48.17ZM64.8821 48.17L65.362 47.2926L64.8821 48.17ZM68.0821 60.906L67.2188 60.4013L68.0821 60.906ZM64.7541 64.138L65.2283 65.0185L65.233 65.0159L64.7541 64.138ZM62.7701 61.418L62.296 60.5374L62.2865 60.5427L62.7701 61.418ZM64.7861 59.402L63.9179 58.9058L64.7861 59.402ZM64.8181 52.906L63.941 53.3863L63.946 53.3952L64.8181 52.906ZM57.6181 50.89L57.1344 50.0147L57.1245 50.0203L57.6181 50.89ZM55.7301 52.906L56.6113 53.3788L56.616 53.37L55.7301 52.906ZM56.4661 60.554L55.7296 61.2304L55.7368 61.2382L55.7442 61.2459L56.4661 60.554ZM60.1461 64.258C58.6377 64.258 57.3031 63.9212 56.1198 63.2638L55.1485 65.0121C56.6531 65.848 58.3266 66.258 60.1461 66.258V64.258ZM56.1303 63.2697C54.9453 62.5926 54.0182 61.6574 53.3377 60.4477L51.5946 61.4282C52.4501 62.9492 53.635 64.1474 55.138 65.0062L56.1303 63.2697ZM53.3409 60.4535C52.6662 59.2353 52.3141 57.8065 52.3141 56.138H50.3141C50.3141 58.0961 50.73 59.8673 51.5914 61.4225L53.3409 60.4535ZM52.3141 56.138C52.3141 54.4977 52.6739 53.0827 53.3672 51.8647L51.6291 50.8753C50.7438 52.4305 50.3141 54.1943 50.3141 56.138H52.3141ZM53.3672 51.8647C54.0672 50.6349 55.0116 49.7027 56.21 49.0473L55.2503 47.2926C53.718 48.1306 52.5077 49.3317 51.6291 50.8753L53.3672 51.8647ZM56.21 49.0473C57.4161 48.3877 58.7742 48.05 60.3061 48.05V46.05C58.4674 46.05 56.7748 46.4589 55.2503 47.2926L56.21 49.0473ZM60.3061 48.05C61.8381 48.05 63.1962 48.3877 64.4023 49.0473L65.362 47.2926C63.8374 46.4589 62.1449 46.05 60.3061 46.05V48.05ZM64.4023 49.0473C65.6007 49.7027 66.5451 50.6349 67.2451 51.8647L68.9832 50.8753C68.1046 49.3317 66.8943 48.1306 65.362 47.2926L64.4023 49.0473ZM67.2451 51.8647C67.9384 53.0827 68.2981 54.4977 68.2981 56.138H70.2981C70.2981 54.1943 69.8685 52.4305 68.9832 50.8753L67.2451 51.8647ZM68.2981 56.138C68.2981 57.7736 67.93 59.1849 67.2188 60.4013L68.9454 61.4107C69.8557 59.8537 70.2981 58.0863 70.2981 56.138H68.2981ZM67.2188 60.4013C66.4999 61.6311 65.5233 62.5793 64.2753 63.2601L65.233 65.0159C66.801 64.1606 68.0431 62.9541 68.9454 61.4107L67.2188 60.4013ZM64.28 63.2575C63.0492 63.9202 61.6779 64.258 60.1461 64.258V66.258C61.985 66.258 63.6857 65.849 65.2282 65.0184L64.28 63.2575ZM60.1461 63.09C61.2516 63.09 62.293 62.8242 63.2538 62.2932L62.2865 60.5427C61.6259 60.9078 60.918 61.09 60.1461 61.09V63.09ZM63.2442 62.2984C64.256 61.7536 65.0584 60.9411 65.6544 59.8981L63.9179 58.9058C63.4899 59.6549 62.9482 60.1863 62.296 60.5375L63.2442 62.2984ZM65.6544 59.8981C66.2712 58.8187 66.5541 57.5506 66.5541 56.138H64.5541C64.5541 57.2853 64.3251 58.1932 63.9179 58.9058L65.6544 59.8981ZM66.5541 56.138C66.5541 54.733 66.2849 53.4766 65.6903 52.4167L63.946 53.3952C64.3328 54.0847 64.5541 54.983 64.5541 56.138H66.5541ZM65.6952 52.4257C65.1232 51.3811 64.3433 50.5637 63.3498 50.0147L62.3825 51.7652C63.0104 52.1122 63.5317 52.6388 63.941 53.3863L65.6952 52.4257ZM63.3498 50.0147C62.389 49.4838 61.3476 49.218 60.2421 49.218V51.218C61.014 51.218 61.7219 51.4002 62.3825 51.7652L63.3498 50.0147ZM60.2421 49.218C59.1367 49.218 58.0953 49.4838 57.1345 50.0147L58.1018 51.7652C58.7624 51.4002 59.4703 51.218 60.2421 51.218V49.218ZM57.1245 50.0203C56.1495 50.5737 55.3922 51.396 54.8443 52.442L56.616 53.37C57.0068 52.6239 57.5081 52.1023 58.1118 51.7597L57.1245 50.0203ZM54.849 52.4332C54.2823 53.4893 54.0261 54.7394 54.0261 56.138H56.0261C56.0261 54.9765 56.2393 54.072 56.6113 53.3788L54.849 52.4332ZM54.0261 56.138C54.0261 58.2009 54.5497 59.9456 55.7296 61.2304L57.2027 59.8776C56.4626 59.0717 56.0261 57.8723 56.0261 56.138H54.0261ZM55.7442 61.2459C56.922 62.4749 58.4131 63.09 60.1461 63.09V61.09C58.9351 61.09 57.973 60.681 57.1881 59.8621L55.7442 61.2459ZM75.5604 64.522L75.1346 65.4268L75.1452 65.4318L75.1559 65.4365L75.5604 64.522ZM72.9684 62.474L72.1613 63.0645L72.1684 63.074L72.9684 62.474ZM71.9444 59.562V58.562H70.9036L70.9452 59.6019L71.9444 59.562ZM75.7204 59.562L76.7167 59.4766L76.6383 58.562H75.7204V59.562ZM76.7764 61.45L76.1517 62.2308L76.1659 62.2422L76.1805 62.2531L76.7764 61.45ZM81.6084 61.61L82.1776 62.4322L82.1839 62.4278L81.6084 61.61ZM81.5124 58.602L81.0529 59.4903L81.0652 59.4964L81.5124 58.602ZM78.5364 57.546L78.8071 56.5833L78.8008 56.5816L78.5364 57.546ZM75.3044 56.49L74.9248 57.4151L75.3044 56.49ZM73.1284 54.922L72.3659 55.5689L72.3715 55.5756L72.3772 55.5821L73.1284 54.922ZM73.0644 49.578L73.8751 50.1635L73.8826 50.1529L73.0644 49.578ZM75.4324 47.722L75.0385 46.8028L75.0316 46.8058L75.4324 47.722ZM83.8484 48.586L83.2043 49.3509L83.2115 49.357L83.2188 49.3629L83.8484 48.586ZM85.8324 52.714V53.714H86.8824L86.8312 52.6652L85.8324 52.714ZM82.1844 52.714L81.1877 52.7948L81.2622 53.714H82.1844V52.714ZM81.2244 50.826L81.8561 50.0507L81.2244 50.826ZM76.6804 50.666L76.1024 49.8499H76.1024L76.6804 50.666ZM76.4244 53.29L75.7405 54.0195L75.7405 54.0195L76.4244 53.29ZM77.6724 54.058L77.308 54.9892L77.3258 54.9962L77.3439 55.0025L77.6724 54.058ZM79.8484 54.73L79.5709 55.6907L79.5808 55.6935L79.5907 55.6962L79.8484 54.73ZM82.9844 55.786L82.576 56.6988L82.5903 56.7052L82.6048 56.7111L82.9844 55.786ZM85.1284 57.322L84.3758 57.9805H84.3758L85.1284 57.322ZM86.0564 60.042H87.0564V60.0325L87.0562 60.0231L86.0564 60.042ZM85.2244 62.73L84.4062 62.155L85.2244 62.73ZM82.8564 64.586L82.4556 63.6698L82.4485 63.673L82.8564 64.586ZM79.3044 64.258C78.0372 64.258 76.9298 64.0342 75.9649 63.6074L75.1559 65.4365C76.4096 65.991 77.7983 66.258 79.3044 66.258V64.258ZM75.9862 63.6172C75.0269 63.1657 74.2985 62.5808 73.7684 61.874L72.1684 63.074C72.9183 64.0738 73.9179 64.8542 75.1346 65.4268L75.9862 63.6172ZM73.7754 61.8835C73.2508 61.1665 72.9782 60.3869 72.9436 59.522L70.9452 59.6019C70.9959 60.8703 71.4059 62.0321 72.1614 63.0645L73.7754 61.8835ZM71.9444 60.562H75.7204V58.562H71.9444V60.562ZM74.724 59.6474C74.8138 60.6941 75.32 61.5655 76.1517 62.2308L77.4011 60.6691C76.9528 60.3104 76.755 59.9232 76.7167 59.4766L74.724 59.6474ZM76.1805 62.2531C77.0454 62.8947 78.0868 63.186 79.2404 63.186V61.186C78.4313 61.186 77.8301 60.9866 77.3722 60.6469L76.1805 62.2531ZM79.2404 63.186C80.369 63.186 81.3896 62.9777 82.1776 62.4322L81.0392 60.7878C80.7178 61.0103 80.1598 61.186 79.2404 61.186V63.186ZM82.1839 62.4278C82.9834 61.8651 83.4724 61.0669 83.4724 60.074H81.4724C81.4724 60.3184 81.3854 60.5441 81.0329 60.7922L82.1839 62.4278ZM83.4724 60.074C83.4724 59.5751 83.3492 59.0919 83.07 58.6637C82.7937 58.24 82.4033 57.9294 81.9596 57.7075L81.0652 59.4964C81.2615 59.5946 81.3511 59.6892 81.3948 59.7562C81.4356 59.8187 81.4724 59.9115 81.4724 60.074H83.4724ZM81.9718 57.7138C81.2586 57.3449 80.1852 56.9709 78.8071 56.5833L78.2656 58.5086C79.6182 58.889 80.5288 59.2191 81.053 59.4902L81.9718 57.7138ZM78.8008 56.5816C77.4993 56.2247 76.4644 55.885 75.684 55.5648L74.9248 57.4151C75.8084 57.7776 76.9282 58.1419 78.272 58.5104L78.8008 56.5816ZM75.684 55.5648C75.0007 55.2845 74.4009 54.8551 73.8796 54.2619L72.3772 55.5821C73.0933 56.3969 73.9441 57.0128 74.9248 57.4151L75.684 55.5648ZM73.8909 54.275C73.482 53.7931 73.2324 53.1136 73.2324 52.138H71.2324C71.2324 53.4664 71.5801 54.6429 72.3659 55.5689L73.8909 54.275ZM73.2324 52.138C73.2324 51.4116 73.4423 50.7627 73.8751 50.1635L72.2537 48.9925C71.5772 49.9292 71.2324 50.987 71.2324 52.138H73.2324ZM73.8826 50.1529C74.3162 49.5358 74.9499 49.0246 75.8332 48.6381L75.0316 46.8058C73.8669 47.3154 72.9219 48.0415 72.2462 49.003L73.8826 50.1529ZM75.8263 48.6411C76.7267 48.2552 77.7836 48.05 79.0164 48.05V46.05C77.5612 46.05 76.2288 46.2927 75.0385 46.8028L75.8263 48.6411ZM79.0164 48.05C80.8493 48.05 82.2117 48.515 83.2043 49.3509L84.4925 47.8211C83.0531 46.6089 81.1941 46.05 79.0164 46.05V48.05ZM83.2188 49.3629C84.2115 50.1674 84.7606 51.2659 84.8336 52.7627L86.8312 52.6652C86.7336 50.6634 85.9599 49.0099 84.478 47.809L83.2188 49.3629ZM85.8324 51.714H82.1844V53.714H85.8324V51.714ZM83.1811 52.6332C83.0967 51.5922 82.6583 50.7044 81.8561 50.0507L80.5927 51.6012C80.9425 51.8862 81.1441 52.257 81.1877 52.7948L83.1811 52.6332ZM81.8561 50.0507C81.0515 49.3951 80.0256 49.122 78.8884 49.122V51.122C79.7139 51.122 80.2453 51.3181 80.5927 51.6012L81.8561 50.0507ZM78.8884 49.122C77.8242 49.122 76.8514 49.3194 76.1024 49.8499L77.2584 51.482C77.5334 51.2872 78.0326 51.122 78.8884 51.122V49.122ZM76.1024 49.8499C75.3415 50.3889 74.9124 51.1655 74.9124 52.106H76.9124C76.9124 51.8518 76.9953 51.6683 77.2584 51.482L76.1024 49.8499ZM74.9124 52.106C74.9124 52.8507 75.1968 53.5098 75.7405 54.0195L77.1083 52.5604C76.9694 52.4301 76.9124 52.2999 76.9124 52.106H74.9124ZM75.7405 54.0195C76.1855 54.4367 76.7138 54.7567 77.308 54.9892L78.0368 53.1267C77.6496 52.9752 77.346 52.7832 77.1083 52.5604L75.7405 54.0195ZM77.3439 55.0025C77.8604 55.1821 78.6063 55.412 79.5709 55.6907L80.1259 53.7693C79.1705 53.4932 78.4658 53.2752 78.0009 53.1135L77.3439 55.0025ZM79.5907 55.6962C80.8416 56.0298 81.8315 56.3657 82.576 56.6988L83.3928 54.8732C82.516 54.4809 81.4152 54.1128 80.1061 53.7637L79.5907 55.6962ZM82.6048 56.7111C83.2922 56.9931 83.8796 57.4133 84.3758 57.9805L85.881 56.6635C85.1826 55.8653 84.3406 55.2615 83.364 54.8608L82.6048 56.7111ZM84.3758 57.9805C84.7825 58.4453 85.0386 59.1059 85.0566 60.0608L87.0562 60.0231C87.0316 58.7167 86.6689 57.564 85.881 56.6635L84.3758 57.9805ZM85.0564 60.042C85.0564 60.8475 84.8377 61.541 84.4062 62.155L86.0426 63.3049C86.7204 62.3403 87.0564 61.2418 87.0564 60.042H85.0564ZM84.4062 62.155C83.9726 62.7721 83.3389 63.2834 82.4556 63.6698L83.2572 65.5021C84.4219 64.9926 85.3669 64.2665 86.0426 63.3049L84.4062 62.155ZM82.4485 63.673C81.6014 64.0515 80.5624 64.258 79.3044 64.258V66.258C80.7771 66.258 82.1061 66.0165 83.2643 65.499L82.4485 63.673ZM96.9741 56.17L96.2383 55.4928L95.614 56.1712L96.2395 56.8485L96.9741 56.17ZM105.102 64.97V65.97H107.387L105.837 64.2915L105.102 64.97ZM100.174 64.97L99.4162 65.6223L99.7155 65.97H100.174V64.97ZM93.6461 57.386L94.404 56.7336L92.6461 54.6913V57.386H93.6461ZM93.6461 64.97V65.97H94.6461V64.97H93.6461ZM89.9981 64.97H88.9981V65.97H89.9981V64.97ZM89.9981 41.29V40.29H88.9981V41.29H89.9981ZM93.6461 41.29H94.6461V40.29H93.6461V41.29ZM93.6461 55.05H92.6461V57.8209L94.4157 55.6886L93.6461 55.05ZM100.046 47.338V46.338H99.5765L99.2766 46.6994L100.046 47.338ZM105.102 47.338L105.838 48.0151L107.381 46.338H105.102V47.338ZM96.2395 56.8485L104.368 65.6485L105.837 64.2915L97.7087 55.4915L96.2395 56.8485ZM105.102 63.97H100.174V65.97H105.102V63.97ZM100.932 64.3176L94.404 56.7336L92.8882 58.0383L99.4162 65.6223L100.932 64.3176ZM92.6461 57.386V64.97H94.6461V57.386H92.6461ZM93.6461 63.97H89.9981V65.97H93.6461V63.97ZM90.9981 64.97V41.29H88.9981V64.97H90.9981ZM89.9981 42.29H93.6461V40.29H89.9981V42.29ZM92.6461 41.29V55.05H94.6461V41.29H92.6461ZM94.4157 55.6886L100.816 47.9766L99.2766 46.6994L92.8766 54.4114L94.4157 55.6886ZM100.046 48.338H105.102V46.338H100.046V48.338ZM104.366 46.6608L96.2383 55.4928L97.71 56.8471L105.838 48.0151L104.366 46.6608ZM130.781 52.554L129.899 52.0844V52.0844L130.781 52.554ZM128.221 55.018L128.688 55.9026L128.7 55.8959L128.221 55.018ZM119.677 55.946V54.946H118.677V55.946H119.677ZM119.677 64.97V65.97H120.677V64.97H119.677ZM116.029 64.97H115.029V65.97H116.029V64.97ZM116.029 42.73V41.73H115.029V42.73H116.029ZM128.029 43.626L127.576 44.5171L127.585 44.522L127.595 44.5267L128.029 43.626ZM130.685 45.994L129.818 46.4921L129.822 46.499L129.826 46.5058L130.685 45.994ZM126.813 52.042L127.485 52.783L127.491 52.7773L127.497 52.7715L126.813 52.042ZM119.677 45.706V44.706H118.677V45.706H119.677ZM119.677 52.97H118.677V53.97H119.677V52.97ZM130.581 49.354C130.581 50.3201 130.355 51.2256 129.899 52.0844L131.664 53.0236C132.274 51.877 132.581 50.6492 132.581 49.354H130.581ZM129.899 52.0844C129.472 52.8856 128.775 53.5768 127.743 54.1401L128.7 55.8959C130.014 55.1791 131.024 54.2276 131.664 53.0236L129.899 52.0844ZM127.755 54.1334C126.77 54.6528 125.441 54.946 123.709 54.946V56.946C125.648 56.946 127.326 56.6204 128.688 55.9025L127.755 54.1334ZM123.709 54.946H119.677V56.946H123.709V54.946ZM118.677 55.946V64.97H120.677V55.946H118.677ZM119.677 63.97H116.029V65.97H119.677V63.97ZM117.029 64.97V42.73H115.029V64.97H117.029ZM116.029 43.73H123.709V41.73H116.029V43.73ZM123.709 43.73C125.304 43.73 126.578 44.0093 127.576 44.5171L128.483 42.7348C127.134 42.0479 125.529 41.73 123.709 41.73V43.73ZM127.595 44.5267C128.636 45.0285 129.357 45.6889 129.818 46.4921L131.552 45.4958C130.862 44.2937 129.812 43.3755 128.464 42.7252L127.595 44.5267ZM129.826 46.5058C130.326 47.3442 130.581 48.2855 130.581 49.354H132.581C132.581 47.9477 132.24 46.649 131.544 45.4822L129.826 46.5058ZM123.709 53.97C125.222 53.97 126.544 53.6352 127.485 52.783L126.142 51.301C125.717 51.686 124.97 51.97 123.709 51.97V53.97ZM127.497 52.7715C128.427 51.9002 128.837 50.7139 128.837 49.354H126.837C126.837 50.2981 126.565 50.9037 126.129 51.3124L127.497 52.7715ZM128.837 49.354C128.837 47.9496 128.434 46.723 127.468 45.8686C126.524 45.0351 125.211 44.706 123.709 44.706V46.706C124.96 46.706 125.71 46.9849 126.143 47.3673C126.552 47.7289 126.837 48.3264 126.837 49.354H128.837ZM123.709 44.706H119.677V46.706H123.709V44.706ZM118.677 45.706V52.97H120.677V45.706H118.677ZM119.677 53.97H123.709V51.97H119.677V53.97ZM138.197 64.138L137.7 65.0063L137.711 65.0121L138.197 64.138ZM135.029 60.938L134.154 61.4225L134.157 61.4282L135.029 60.938ZM138.293 48.17L137.813 47.2926L138.293 48.17ZM147.445 48.17L147.924 47.2926L147.445 48.17ZM150.645 60.906L149.781 60.4013L150.645 60.906ZM147.317 64.138L147.791 65.0185L147.795 65.0159L147.317 64.138ZM145.333 61.418L144.859 60.5374L144.849 60.5427L145.333 61.418ZM147.349 59.402L146.48 58.9058L147.349 59.402ZM147.381 52.906L146.504 53.3863L146.508 53.3952L147.381 52.906ZM140.181 50.89L139.697 50.0147L139.687 50.0203L140.181 50.89ZM138.293 52.906L139.174 53.3788L139.178 53.37L138.293 52.906ZM139.029 60.554L138.292 61.2304L138.299 61.2382L138.307 61.2459L139.029 60.554ZM142.709 64.258C141.2 64.258 139.866 63.9212 138.682 63.2638L137.711 65.0121C139.216 65.848 140.889 66.258 142.709 66.258V64.258ZM138.693 63.2697C137.508 62.5926 136.581 61.6574 135.9 60.4477L134.157 61.4282C135.013 62.9492 136.198 64.1474 137.701 65.0062L138.693 63.2697ZM135.903 60.4535C135.229 59.2353 134.877 57.8065 134.877 56.138H132.877C132.877 58.0961 133.293 59.8673 134.154 61.4225L135.903 60.4535ZM134.877 56.138C134.877 54.4977 135.236 53.0827 135.93 51.8647L134.192 50.8753C133.306 52.4305 132.877 54.1943 132.877 56.138H134.877ZM135.93 51.8647C136.63 50.6349 137.574 49.7027 138.772 49.0473L137.813 47.2926C136.28 48.1306 135.07 49.3317 134.192 50.8753L135.93 51.8647ZM138.772 49.0473C139.979 48.3877 141.337 48.05 142.869 48.05V46.05C141.03 46.05 139.337 46.4589 137.813 47.2926L138.772 49.0473ZM142.869 48.05C144.401 48.05 145.759 48.3877 146.965 49.0473L147.924 47.2926C146.4 46.4589 144.707 46.05 142.869 46.05V48.05ZM146.965 49.0473C148.163 49.7027 149.108 50.6349 149.808 51.8647L151.546 50.8753C150.667 49.3317 149.457 48.1306 147.924 47.2926L146.965 49.0473ZM149.808 51.8647C150.501 53.0827 150.861 54.4977 150.861 56.138H152.861C152.861 54.1943 152.431 52.4305 151.546 50.8753L149.808 51.8647ZM150.861 56.138C150.861 57.7736 150.492 59.1849 149.781 60.4013L151.508 61.4107C152.418 59.8537 152.861 58.0863 152.861 56.138H150.861ZM149.781 60.4013C149.062 61.6311 148.086 62.5793 146.838 63.2601L147.795 65.0159C149.363 64.1606 150.606 62.9541 151.508 61.4107L149.781 60.4013ZM146.843 63.2575C145.612 63.9202 144.24 64.258 142.709 64.258V66.258C144.548 66.258 146.248 65.849 147.791 65.0184L146.843 63.2575ZM142.709 63.09C143.814 63.09 144.856 62.8242 145.816 62.2932L144.849 60.5427C144.188 60.9078 143.481 61.09 142.709 61.09V63.09ZM145.807 62.2984C146.819 61.7536 147.621 60.9411 148.217 59.8981L146.48 58.9058C146.052 59.6549 145.511 60.1863 144.859 60.5375L145.807 62.2984ZM148.217 59.8981C148.834 58.8187 149.117 57.5506 149.117 56.138H147.117C147.117 57.2853 146.888 58.1932 146.48 58.9058L148.217 59.8981ZM149.117 56.138C149.117 54.733 148.847 53.4766 148.253 52.4167L146.508 53.3952C146.895 54.0847 147.117 54.983 147.117 56.138H149.117ZM148.258 52.4257C147.686 51.3811 146.906 50.5637 145.912 50.0147L144.945 51.7652C145.573 52.1122 146.094 52.6388 146.504 53.3863L148.258 52.4257ZM145.912 50.0147C144.952 49.4838 143.91 49.218 142.805 49.218V51.218C143.577 51.218 144.284 51.4002 144.945 51.7652L145.912 50.0147ZM142.805 49.218C141.699 49.218 140.658 49.4838 139.697 50.0147L140.664 51.7652C141.325 51.4002 142.033 51.218 142.805 51.218V49.218ZM139.687 50.0203C138.712 50.5737 137.955 51.396 137.407 52.442L139.178 53.37C139.569 52.6239 140.071 52.1023 140.674 51.7597L139.687 50.0203ZM137.411 52.4332C136.845 53.4893 136.589 54.7394 136.589 56.138H138.589C138.589 54.9765 138.802 54.072 139.174 53.3788L137.411 52.4332ZM136.589 56.138C136.589 58.2009 137.112 59.9456 138.292 61.2304L139.765 59.8776C139.025 59.0717 138.589 57.8723 138.589 56.138H136.589ZM138.307 61.2459C139.484 62.4749 140.976 63.09 142.709 63.09V61.09C141.498 61.09 140.535 60.681 139.751 59.8621L138.307 61.2459ZM159.115 49.898H158.115V53.5331L159.974 50.4095L159.115 49.898ZM161.227 47.818L161.716 48.6901L161.723 48.6862L161.227 47.818ZM164.395 47.05H165.395V46.05H164.395V47.05ZM164.395 50.826V51.826H165.395V50.826H164.395ZM160.203 51.914L159.506 51.1967L159.501 51.2017L159.496 51.2069L160.203 51.914ZM159.115 64.97V65.97H160.115V64.97H159.115ZM155.467 64.97H154.467V65.97H155.467V64.97ZM155.467 47.338V46.338H154.467V47.338H155.467ZM159.115 47.338H160.115V46.338H159.115V47.338ZM159.974 50.4095C160.422 49.6578 161.001 49.0916 161.716 48.6901L160.738 46.9458C159.704 47.5257 158.875 48.3462 158.256 49.3865L159.974 50.4095ZM161.723 48.6862C162.443 48.2748 163.322 48.05 164.395 48.05V46.05C163.036 46.05 161.803 46.3371 160.731 46.9497L161.723 48.6862ZM163.395 47.05V50.826H165.395V47.05H163.395ZM164.395 49.826H163.467V51.826H164.395V49.826ZM163.467 49.826C161.876 49.826 160.5 50.2312 159.506 51.1967L160.9 52.6312C161.399 52.146 162.199 51.826 163.467 51.826V49.826ZM159.496 51.2069C158.484 52.2185 158.115 53.8162 158.115 55.69H160.115C160.115 53.9798 160.471 53.0601 160.91 52.6211L159.496 51.2069ZM158.115 55.69V64.97H160.115V55.69H158.115ZM159.115 63.97H155.467V65.97H159.115V63.97ZM156.467 64.97V47.338H154.467V64.97H156.467ZM155.467 48.338H159.115V46.338H155.467V48.338ZM158.115 47.338V49.898H160.115V47.338H158.115ZM172.004 50.314V49.314H171.004V50.314H172.004ZM172.452 61.514L171.745 62.2211L171.77 62.2463L171.797 62.2697L172.452 61.514ZM176.292 61.93H177.292V60.93H176.292V61.93ZM176.292 64.97V65.97H177.292V64.97H176.292ZM169.636 63.818L168.976 64.5694L169.636 63.818ZM168.324 50.314H169.324V49.314H168.324V50.314ZM166.244 50.314H165.244V51.314H166.244V50.314ZM166.244 47.338V46.338H165.244V47.338H166.244ZM168.324 47.338V48.338H169.324V47.338H168.324ZM168.324 42.954V41.954H167.324V42.954H168.324ZM172.004 42.954H173.004V41.954H172.004V42.954ZM172.004 47.338H171.004V48.338H172.004V47.338ZM176.292 47.338H177.292V46.338H176.292V47.338ZM176.292 50.314V51.314H177.292V50.314H176.292ZM171.004 50.314V60.074H173.004V50.314H171.004ZM171.004 60.074C171.004 60.8548 171.176 61.6523 171.745 62.2211L173.159 60.8069C173.131 60.7783 173.004 60.6158 173.004 60.074H171.004ZM171.797 62.2697C172.394 62.7869 173.231 62.93 174.052 62.93V60.93C173.38 60.93 173.15 60.7957 173.107 60.7583L171.797 62.2697ZM174.052 62.93H176.292V60.93H174.052V62.93ZM175.292 61.93V64.97H177.292V61.93H175.292ZM176.292 63.97H173.412V65.97H176.292V63.97ZM173.412 63.97C171.913 63.97 170.925 63.6192 170.296 63.0665L168.976 64.5694C170.096 65.5528 171.626 65.97 173.412 65.97V63.97ZM170.296 63.0665C169.725 62.5651 169.324 61.6555 169.324 60.074H167.324C167.324 61.9485 167.798 63.5349 168.976 64.5694L170.296 63.0665ZM169.324 60.074V50.314H167.324V60.074H169.324ZM168.324 49.314H166.244V51.314H168.324V49.314ZM167.244 50.314V47.338H165.244V50.314H167.244ZM166.244 48.338H168.324V46.338H166.244V48.338ZM169.324 47.338V42.954H167.324V47.338H169.324ZM168.324 43.954H172.004V41.954H168.324V43.954ZM171.004 42.954V47.338H173.004V42.954H171.004ZM172.004 48.338H176.292V46.338H172.004V48.338ZM175.292 47.338V50.314H177.292V47.338H175.292ZM176.292 49.314H172.004V51.314H176.292V49.314ZM179.526 51.37L178.649 50.8901L178.643 50.9008L179.526 51.37ZM182.534 48.202L183.045 49.062L183.049 49.0595L182.534 48.202ZM190.374 47.882L189.898 48.7613L189.909 48.7671L189.92 48.7727L190.374 47.882ZM192.87 49.898L192.075 50.5046L193.87 52.8566V49.898H192.87ZM192.87 47.338V46.338H191.87V47.338H192.87ZM196.55 47.338H197.55V46.338H196.55V47.338ZM196.55 64.97V65.97H197.55V64.97H196.55ZM192.87 64.97H191.87V65.97H192.87V64.97ZM192.87 62.346H193.87V59.3253L192.068 61.7493L192.87 62.346ZM190.342 64.426L189.881 63.5388L190.342 64.426ZM182.534 64.106L182.003 64.9532L182.014 64.9596L182.534 64.106ZM179.526 60.842L178.637 61.2999L178.642 61.308L178.646 61.3161L179.526 60.842ZM192.102 52.97L191.225 53.4503L191.23 53.4582L191.234 53.4661L192.102 52.97ZM190.15 50.922L189.649 51.7874L190.15 50.922ZM184.902 50.922L185.386 51.7972L185.395 51.7924L185.403 51.7874L184.902 50.922ZM182.918 52.938L182.05 52.4418L182.046 52.4487L182.918 52.938ZM182.918 59.274L182.037 59.7456L182.041 59.7535L182.045 59.7613L182.918 59.274ZM184.902 61.386L184.385 62.2415L184.398 62.2494L184.411 62.257L184.902 61.386ZM190.15 61.386L190.651 62.2514L190.15 61.386ZM192.102 59.338L191.229 58.8506L191.225 58.8577L192.102 59.338ZM179.438 56.074C179.438 54.4429 179.771 53.0402 180.41 51.8391L178.643 50.9008C177.831 52.4304 177.438 54.1637 177.438 56.074H179.438ZM180.404 51.8498C181.07 50.6315 181.95 49.7113 183.045 49.062L182.024 47.3419C180.601 48.1859 179.476 49.3778 178.649 50.8902L180.404 51.8498ZM183.049 49.0595C184.169 48.3875 185.398 48.05 186.758 48.05V46.05C185.047 46.05 183.46 46.4804 182.02 47.3445L183.049 49.0595ZM186.758 48.05C188.01 48.05 189.046 48.2996 189.898 48.7613L190.851 47.0027C189.655 46.355 188.28 46.05 186.758 46.05V48.05ZM189.92 48.7727C190.852 49.2483 191.56 49.8297 192.075 50.5046L193.665 49.2913C192.943 48.3449 191.987 47.5823 190.829 46.9912L189.92 48.7727ZM193.87 49.898V47.338H191.87V49.898H193.87ZM192.87 48.338H196.55V46.338H192.87V48.338ZM195.55 47.338V64.97H197.55V47.338H195.55ZM196.55 63.97H192.87V65.97H196.55V63.97ZM193.87 64.97V62.346H191.87V64.97H193.87ZM192.068 61.7493C191.553 62.4419 190.835 63.0428 189.881 63.5388L190.804 65.3132C191.983 64.6998 192.951 63.914 193.673 62.9427L192.068 61.7493ZM189.881 63.5388C188.975 64.0098 187.921 64.258 186.694 64.258V66.258C188.198 66.258 189.576 65.9515 190.804 65.3132L189.881 63.5388ZM186.694 64.258C185.358 64.258 184.153 63.9219 183.055 63.2523L182.014 64.9596C183.434 65.826 185.001 66.258 186.694 66.258V64.258ZM183.066 63.2588C181.963 62.567 181.077 61.6115 180.407 60.3679L178.646 61.3161C179.47 62.8458 180.589 64.0662 182.003 64.9532L183.066 63.2588ZM180.415 60.384C179.771 59.1336 179.438 57.7044 179.438 56.074H177.438C177.438 57.9849 177.831 59.7343 178.637 61.2999L180.415 60.384ZM193.87 56.138C193.87 54.7792 193.583 53.5459 192.971 52.4738L191.234 53.4661C191.646 54.186 191.87 55.0648 191.87 56.138H193.87ZM192.979 52.4897C192.409 51.4483 191.634 50.6257 190.651 50.0565L189.649 51.7874C190.288 52.1569 190.814 52.6996 191.225 53.4503L192.979 52.4897ZM190.651 50.0565C189.688 49.4989 188.641 49.218 187.526 49.218V51.218C188.29 51.218 188.991 51.4064 189.649 51.7874L190.651 50.0565ZM187.526 49.218C186.412 49.218 185.365 49.4989 184.401 50.0565L185.403 51.7874C186.062 51.4064 186.763 51.218 187.526 51.218V49.218ZM184.419 50.0467C183.43 50.5933 182.642 51.4053 182.05 52.4418L183.787 53.4341C184.218 52.6787 184.754 52.1466 185.386 51.7972L184.419 50.0467ZM182.046 52.4487C181.456 53.5015 181.182 54.7229 181.182 56.074H183.182C183.182 54.9931 183.4 54.1237 183.791 53.4272L182.046 52.4487ZM181.182 56.074C181.182 57.4267 181.456 58.6605 182.037 59.7456L183.8 58.8023C183.399 58.0528 183.182 57.1533 183.182 56.074H181.182ZM182.045 59.7613C182.632 60.8133 183.41 61.6515 184.385 62.2415L185.42 60.5305C184.774 60.1391 184.228 59.5693 183.792 58.7866L182.045 59.7613ZM184.411 62.257C185.387 62.8072 186.43 63.09 187.526 63.09V61.09C186.788 61.09 186.082 60.9034 185.394 60.515L184.411 62.257ZM187.526 63.09C188.641 63.09 189.688 62.8091 190.651 62.2514L189.649 60.5205C188.991 60.9015 188.29 61.09 187.526 61.09V63.09ZM190.651 62.2514C191.634 61.6823 192.409 60.8596 192.979 59.8183L191.225 58.8577C190.814 59.6083 190.288 60.151 189.649 60.5205L190.651 62.2514ZM192.976 59.8253C193.583 58.737 193.87 57.4975 193.87 56.138H191.87C191.87 57.2105 191.646 58.1043 191.229 58.8506L192.976 59.8253ZM204.99 41.29H205.99V40.29H204.99V41.29ZM204.99 64.97V65.97H205.99V64.97H204.99ZM201.342 64.97H200.342V65.97H201.342V64.97ZM201.342 41.29V40.29H200.342V41.29H201.342ZM203.99 41.29V64.97H205.99V41.29H203.99ZM204.99 63.97H201.342V65.97H204.99V63.97ZM202.342 64.97V41.29H200.342V64.97H202.342ZM201.342 42.29H204.99V40.29H201.342V42.29Z" fill="black" fill-opacity="0.2" mask="url(#path-2-outside-1_32_4)"/>
</svg>
